<svg xmlns="http://www.w3.org/2000/svg" xmlns:xlink="http://www.w3.org/1999/xlink" fill="none" version="1.1" width="24" height="24" viewBox="0 0 24 24"><defs><clipPath id="svg0_1_0785"><rect x="0" y="0" width="24" height="24" rx="0"/></clipPath></defs><g clip-path="url(#svg0_1_0785)"><g><path d="M4.221087578125,4.22182Q0.999268578125,7.44365,0.999267578125,12Q0.999267578125,16.5564,4.221087578125,19.7782Q7.442917578125,23,11.999267578125,23Q16.555667578125,23,19.777467578125,19.7782Q22.999267578125,16.5564,22.999267578125,12Q22.999267578125,7.44364,19.777467578125,4.22182Q16.555567578125,1.0000010000000001,11.999267578125,1Q7.442917578125,1,4.221087578125,4.22182ZM5.6353075781249995,18.364Q2.999267578125,15.7279,2.999267578125,12Q2.999267578125,8.272079999999999,5.6353075781249995,5.6360399999999995Q8.271337578125,3,11.999267578125,3Q15.727167578125,2.999999,18.363267578125,5.6360399999999995Q20.999267578125,8.27207,20.999267578125,12Q20.999267578125,15.7279,18.363267578125,18.364Q15.727167578125,21,11.999267578125,21Q8.271347578124999,21,5.6353075781249995,18.364Z" fill-rule="evenodd" fill="#111111" fill-opacity="1"/></g><g><path d="M11,8Q11,7.9015086,11.019214999999999,7.80491Q11.03843,7.708311,11.076121,7.617317Q11.113812,7.526322,11.16853,7.44443Q11.223249,7.362537,11.292893,7.292893Q11.362537,7.223249,11.44443,7.16853Q11.526322,7.113812,11.617317,7.076121Q11.708311,7.03843,11.80491,7.019215Q11.9015086,7,12,7Q12.0984914,7,12.19509,7.019215Q12.291689,7.03843,12.382683,7.076121Q12.473678,7.113812,12.55557,7.16853Q12.637463,7.223249,12.707107,7.292893Q12.776751,7.362537,12.83147,7.44443Q12.886188,7.526322,12.923879,7.617317Q12.96157,7.708311,12.980785000000001,7.80491Q13,7.9015086,13,8L13,16Q13,16.098489999999998,12.980785000000001,16.19509Q12.96157,16.29169,12.923879,16.38268Q12.886188,16.47368,12.83147,16.55557Q12.776751,16.63746,12.707107,16.70711Q12.637463,16.77675,12.55557,16.83147Q12.473678,16.88619,12.382683,16.92388Q12.291689,16.961570000000002,12.19509,16.98078Q12.0984914,17,12,17Q11.9015086,17,11.80491,16.98078Q11.708311,16.961570000000002,11.617317,16.92388Q11.526322,16.88619,11.44443,16.83147Q11.362537,16.77675,11.292893,16.70711Q11.223249,16.63746,11.16853,16.55557Q11.113812,16.47368,11.076121,16.38268Q11.03843,16.29169,11.019214999999999,16.19509Q11,16.098489999999998,11,16L11,8Z" fill-rule="evenodd" fill="#111111" fill-opacity="1"/></g><g><path d="M7.999267578125,11L15.999267578125,11Q16.097757578124998,11,16.194357578125,11.019214999999999Q16.290957578125,11.03843,16.381947578125,11.076121Q16.472947578125,11.113812,16.554837578125,11.16853Q16.636727578125,11.223249,16.706377578125,11.292893Q16.776017578125,11.362537,16.830737578125,11.44443Q16.885457578125,11.526322,16.923147578125,11.617317Q16.960837578125002,11.708311,16.980047578125,11.80491Q16.999267578125,11.9015086,16.999267578125,12Q16.999267578125,12.0984914,16.980047578125,12.19509Q16.960837578125002,12.291689,16.923147578125,12.382683Q16.885457578125,12.473678,16.830737578125,12.55557Q16.776017578125,12.637463,16.706377578125,12.707107Q16.636727578125,12.776751,16.554837578125,12.83147Q16.472947578125,12.886188,16.381947578125,12.923879Q16.290957578125,12.96157,16.194357578125,12.980785000000001Q16.097757578124998,13,15.999267578125,13L7.999267578125,13Q7.900776178125,13,7.804177578125,12.980785000000001Q7.707578578125,12.96157,7.616584578125,12.923879Q7.525589578125,12.886188,7.443697578125,12.83147Q7.361804578125,12.776751,7.292160578125,12.707107Q7.222516578125,12.637463,7.167797578125,12.55557Q7.113079578125,12.473678,7.075388578125,12.382683Q7.037697578125,12.291689,7.018482578125,12.19509Q6.999267578125,12.0984914,6.999267578125,12Q6.999267578125,11.9015086,7.018482578125,11.80491Q7.037697578125,11.708311,7.075388578125,11.617317Q7.113079578125,11.526322,7.167797578125,11.44443Q7.222516578125,11.362537,7.292160578125,11.292893Q7.361804578125,11.223249,7.443697578125,11.16853Q7.525589578125,11.113812,7.616584578125,11.076121Q7.707578578125,11.03843,7.804177578125,11.019214999999999Q7.900776178125,11,7.999267578125,11Z" fill-rule="evenodd" fill="#111111" fill-opacity="1"/></g></g></svg>