<svg xmlns="http://www.w3.org/2000/svg" xmlns:xlink="http://www.w3.org/1999/xlink" fill="none" version="1.1" width="16" height="16" viewBox="0 0 16 16"><defs><clipPath id="svg0_1_1134"><rect x="0" y="0" width="16" height="16" rx="0"/></clipPath></defs><g clip-path="url(#svg0_1_1134)"><g><rect x="0" y="0" width="16" height="16" rx="0" fill="#FFFFFF" fill-opacity="0.009999999776482582"/></g><g><path d="M13.99997329711914,7.333333L1.9999732971191406,7.333333L1.9999732971191406,7.335Q1.9344764971191406,7.335,1.8702382971191407,7.347778Q1.8060002971191407,7.360556,1.7454892971191407,7.38562Q1.6849772971191406,7.410685,1.6305192971191407,7.447073Q1.5760602971191406,7.483461,1.5297472971191406,7.529774Q1.4834342971191408,7.576087,1.4470462971191407,7.630546Q1.4106582971191406,7.685004,1.3855932971191405,7.745516Q1.3605292971191405,7.806027,1.3477512971191405,7.870265Q1.3349732971191406,7.9345032,1.3349732971191406,8Q1.3349732971191406,8.0654968,1.3477512971191405,8.129735Q1.3605292971191405,8.193973,1.3855932971191405,8.254484Q1.4106582971191406,8.314996,1.4470462971191407,8.369454Q1.4834342971191408,8.423913,1.5297472971191406,8.470226Q1.5760602971191406,8.516539,1.6305192971191407,8.552927Q1.6849772971191406,8.589315,1.7454892971191407,8.61438Q1.8060002971191407,8.639444,1.8702382971191407,8.652222Q1.9344764971191406,8.665,1.9999732971191406,8.665L1.9999732971191406,8.666667L13.99997329711914,8.666667L13.99997329711914,8.665Q14.06547329711914,8.665,14.12967329711914,8.652222Q14.193973297119141,8.639444,14.25447329711914,8.61438Q14.31497329711914,8.589315,14.369373297119141,8.552927Q14.42387329711914,8.516539,14.47017329711914,8.470226Q14.516473297119141,8.423913,14.55287329711914,8.369454Q14.58927329711914,8.314996,14.61437329711914,8.254484Q14.63937329711914,8.193973,14.652173297119141,8.129735Q14.66497329711914,8.0654968,14.66497329711914,8Q14.66497329711914,7.9345032,14.652173297119141,7.870265Q14.63937329711914,7.806027,14.61437329711914,7.745516Q14.58927329711914,7.685004,14.55287329711914,7.630546Q14.516473297119141,7.576087,14.47017329711914,7.529774Q14.42387329711914,7.483461,14.369373297119141,7.447073Q14.31497329711914,7.410685,14.25447329711914,7.38562Q14.193973297119141,7.360556,14.12967329711914,7.347778Q14.06547329711914,7.335,13.99997329711914,7.335L13.99997329711914,7.333333Z" fill-rule="evenodd" fill="#333333" fill-opacity="1"/></g><g><path d="M9.529774,4.470226Q9.43624,4.376692,9.38562,4.254485Q9.335,4.132277,9.335,4Q9.335,3.9345032,9.347778,3.870265Q9.360556,3.806027,9.38562,3.745516Q9.410685,3.685004,9.447073,3.630546Q9.483461,3.5760870000000002,9.529774,3.529774Q9.576087,3.483461,9.630546,3.447073Q9.685004,3.410685,9.745516,3.38562Q9.806027,3.360556,9.870265,3.347778Q9.9345032,3.335,10,3.335Q10.132277,3.335,10.254485,3.38562Q10.376692,3.4362399999999997,10.470226,3.529774L10.471405,3.528595L14.4714,7.5286Q14.51783,7.57502,14.554310000000001,7.62962Q14.59079,7.68421,14.61592,7.74488Q14.64105,7.805540000000001,14.65386,7.86994Q14.66667,7.934340000000001,14.66667,8Q14.66667,8.065660000000001,14.65386,8.13006Q14.64105,8.19446,14.61592,8.25512Q14.59079,8.31578,14.554310000000001,8.37038Q14.51783,8.42497,14.4714,8.4714L10.471405,12.4714L10.470226,12.47023Q10.376692,12.56376,10.254485,12.61438Q10.132277,12.665,10,12.665Q9.9345032,12.665,9.870265,12.65222Q9.806027,12.63944,9.745516,12.61438Q9.685004,12.58931,9.630546,12.55293Q9.576087,12.51654,9.529774,12.47023Q9.483461,12.42391,9.447073,12.36945Q9.410685,12.31499,9.38562,12.25448Q9.360556,12.19397,9.347778,12.12973Q9.335,12.0655,9.335,12Q9.335,11.86772,9.38562,11.745519999999999Q9.43624,11.62331,9.529774,11.52977L9.528595,11.5286L13.05719,8L9.528595,4.471405L9.529774,4.470226Z" fill-rule="evenodd" fill="#333333" fill-opacity="1"/></g></g></svg>