<svg xmlns="http://www.w3.org/2000/svg" xmlns:xlink="http://www.w3.org/1999/xlink" fill="none" version="1.1" width="56" height="56" viewBox="0 0 56 56"><defs><clipPath id="svg0_14_1161"><rect x="0" y="0" width="56" height="56" rx="0"/></clipPath></defs><g clip-path="url(#svg0_14_1161)"><g></g><g><path d="M3.5,5L7.58333,5Q7.74944,5,7.91327,5.0274Q8.077110000000001,5.05481,8.234169999999999,5.10886Q8.39124,5.16291,8.537230000000001,5.24214Q8.68323,5.32136,8.814160000000001,5.42359Q8.94509,5.52581,9.05735,5.6482399999999995Q9.16962,5.7706599999999995,9.260159999999999,5.90993Q9.35069,6.049193,9.417010000000001,6.201487Q9.483329999999999,6.353781,9.523620000000001,6.514929L10.89489,12L51.3333,12Q51.4316,12,51.5294,12.00963Q51.6271,12.01926,51.7235,12.03843Q51.8199,12.0576,51.9139,12.086120000000001Q52.0079,12.11464,52.0987,12.152239999999999Q52.1895,12.18984,52.2761,12.23616Q52.3628,12.28247,52.4445,12.337060000000001Q52.5262,12.39165,52.6021,12.45398Q52.6781,12.51631,52.7475,12.58579Q52.817,12.65526,52.8793,12.73121Q52.9417,12.80716,52.9963,12.888860000000001Q53.0509,12.97055,53.0972,13.057210000000001Q53.1435,13.14386,53.1811,13.23463Q53.2187,13.32541,53.2472,13.41943Q53.2757,13.513449999999999,53.2949,13.60982Q53.3141,13.70619,53.3237,13.80397Q53.3333,13.90175,53.3333,14Q53.3333,14.24621,53.2736,14.48507L47.4403,37.8184Q47.4,37.979600000000005,47.3337,38.1318Q47.2674,38.284099999999995,47.1768,38.4234Q47.0863,38.5627,46.974,38.6851Q46.8618,38.807500000000005,46.7308,38.9097Q46.5999,39.012,46.4539,39.0912Q46.3079,39.1704,46.1508,39.2245Q45.9938,39.2785,45.8299,39.3059Q45.6661,39.3333,45.5,39.3333L15.1667,39.3333Q15.0006,39.3333,14.8367,39.3059Q14.6729,39.2785,14.5158,39.2245Q14.3588,39.1704,14.2128,39.0912Q14.0668,39.012,13.9358,38.9097Q13.8049,38.807500000000005,13.6926,38.6851Q13.5804,38.5627,13.48984,38.4234Q13.39931,38.284099999999995,13.33299,38.1318Q13.26667,37.979600000000005,13.22638,37.8184L7.393050000000001,14.48507L6.02178,9L3.5,9Q3.4017463,9,3.303966,8.99037Q3.206185,8.98074,3.109819,8.96157Q3.013454,8.9424,2.919431,8.91388Q2.825408,8.88536,2.734633,8.847760000000001Q2.643859,8.81016,2.557207,8.76384Q2.4705500000000002,8.71753,2.38886,8.66294Q2.30716,8.60835,2.23121,8.54602Q2.15526,8.48369,2.0857900000000003,8.41421Q2.01631,8.34474,1.95398,8.26879Q1.89165,8.19284,1.83706,8.11114Q1.78247,8.02945,1.73616,7.942793Q1.68984,7.856141,1.65224,7.765367Q1.61464,7.674592,1.58612,7.580569Q1.5576,7.486546,1.53843,7.390181Q1.51926,7.293815,1.50963,7.196034Q1.5,7.0982537,1.5,7Q1.5,6.9017463,1.50963,6.803966Q1.51926,6.706185,1.53843,6.609819Q1.5576,6.513454,1.58612,6.419431Q1.61464,6.325408,1.65224,6.234633Q1.68984,6.143859,1.73616,6.057207Q1.78247,5.97055,1.83706,5.88886Q1.89165,5.80716,1.95398,5.73121Q2.01631,5.65526,2.0857900000000003,5.58579Q2.15526,5.51631,2.23121,5.45398Q2.30716,5.39165,2.38886,5.33706Q2.4705500000000002,5.28247,2.557207,5.23616Q2.643859,5.18984,2.734633,5.15224Q2.825408,5.11464,2.919431,5.08612Q3.013454,5.0576,3.109819,5.03843Q3.206185,5.01926,3.303966,5.00963Q3.4017463,5,3.5,5ZM11.89489,16L16.7282,35.3333L43.9384,35.3333L48.7718,16L11.89489,16Z" fill-rule="evenodd" fill="#F79218" fill-opacity="1"/></g><g><ellipse cx="15.166748046875" cy="45.5" rx="3.5" ry="3.5" fill-opacity="0" stroke-opacity="1" stroke="#F79218" fill="none" stroke-width="4" stroke-linecap="ROUND" stroke-linejoin="round"/></g><g><ellipse cx="45.5" cy="45.5" rx="3.5" ry="3.5" fill-opacity="0" stroke-opacity="1" stroke="#F79218" fill="none" stroke-width="4" stroke-linecap="ROUND" stroke-linejoin="round"/></g><g><path d="M27.5,23.6666259765625L47.3333,23.6666259765625Q47.4316,23.6666259765625,47.529399999999995,23.6762559765625Q47.6271,23.6858859765625,47.7235,23.705055976562498Q47.819900000000004,23.7242259765625,47.9139,23.7527459765625Q48.0079,23.7812659765625,48.0987,23.8188659765625Q48.189499999999995,23.8564659765625,48.2761,23.902785976562498Q48.3628,23.9490959765625,48.444500000000005,24.0036859765625Q48.5262,24.0582759765625,48.6021,24.1206059765625Q48.6781,24.1829359765625,48.7475,24.2524159765625Q48.817,24.3218859765625,48.879400000000004,24.3978359765625Q48.9417,24.4737859765625,48.996300000000005,24.5554859765625Q49.0509,24.6371759765625,49.0972,24.7238329765625Q49.1435,24.8104849765625,49.1811,24.9012589765625Q49.2187,24.9920339765625,49.2472,25.0860569765625Q49.2757,25.1800799765625,49.2949,25.2764449765625Q49.314099999999996,25.3728109765625,49.3237,25.4705919765625Q49.3333,25.5683722765625,49.3333,25.6666259765625Q49.3333,25.7648796765625,49.3237,25.8626599765625Q49.314099999999996,25.9604409765625,49.2949,26.0568069765625Q49.2757,26.1531719765625,49.2472,26.2471949765625Q49.2187,26.3412179765625,49.1811,26.4319929765625Q49.1435,26.5227669765625,49.0972,26.6094189765625Q49.0509,26.6960759765625,48.996300000000005,26.7777659765625Q48.9417,26.8594659765625,48.879400000000004,26.9354159765625Q48.817,27.0113659765625,48.7475,27.0808359765625Q48.6781,27.1503159765625,48.6021,27.2126459765625Q48.5262,27.2749759765625,48.444500000000005,27.3295659765625Q48.3628,27.3841559765625,48.2761,27.430465976562502Q48.189499999999995,27.4767859765625,48.0987,27.5143859765625Q48.0079,27.5519859765625,47.9139,27.5805059765625Q47.819900000000004,27.6090259765625,47.7235,27.628195976562502Q47.6271,27.6473659765625,47.529399999999995,27.6569959765625Q47.4316,27.6666259765625,47.3333,27.6666259765625L27.5,27.6666259765625Q27.4017463,27.6666259765625,27.303966,27.6569959765625Q27.206185,27.6473659765625,27.109819,27.628195976562502Q27.013454,27.6090259765625,26.919431,27.5805059765625Q26.825408,27.5519859765625,26.734633,27.5143859765625Q26.643859,27.4767859765625,26.557207,27.430465976562502Q26.47055,27.3841559765625,26.38886,27.3295659765625Q26.30716,27.2749759765625,26.23121,27.2126459765625Q26.15526,27.1503159765625,26.08579,27.0808359765625Q26.01631,27.0113659765625,25.95398,26.9354159765625Q25.89165,26.8594659765625,25.83706,26.7777659765625Q25.78247,26.6960759765625,25.736159999999998,26.6094189765625Q25.68984,26.5227669765625,25.65224,26.4319929765625Q25.61464,26.3412179765625,25.58612,26.2471949765625Q25.5576,26.1531719765625,25.538429999999998,26.0568069765625Q25.51926,25.9604409765625,25.50963,25.8626599765625Q25.5,25.7648796765625,25.5,25.6666259765625Q25.5,25.5683722765625,25.50963,25.4705919765625Q25.51926,25.3728109765625,25.538429999999998,25.2764449765625Q25.5576,25.1800799765625,25.58612,25.0860569765625Q25.61464,24.9920339765625,25.65224,24.9012589765625Q25.68984,24.8104849765625,25.736159999999998,24.7238329765625Q25.78247,24.6371759765625,25.83706,24.5554859765625Q25.89165,24.4737859765625,25.95398,24.3978359765625Q26.01631,24.3218859765625,26.08579,24.2524159765625Q26.15526,24.1829359765625,26.23121,24.1206059765625Q26.30716,24.0582759765625,26.38886,24.0036859765625Q26.47055,23.9490959765625,26.557207,23.902785976562498Q26.643859,23.8564659765625,26.734633,23.8188659765625Q26.825408,23.7812659765625,26.919431,23.7527459765625Q27.013454,23.7242259765625,27.109819,23.705055976562498Q27.206185,23.6858859765625,27.303966,23.6762559765625Q27.4017463,23.6666259765625,27.5,23.6666259765625Z" fill-rule="evenodd" fill="#F79218" fill-opacity="1"/></g></g></svg>