<svg xmlns="http://www.w3.org/2000/svg" xmlns:xlink="http://www.w3.org/1999/xlink" fill="none" version="1.1" width="32" height="32" viewBox="0 0 32 32"><defs><clipPath id="master_svg0_23_1511"><rect x="0" y="0" width="32" height="32" rx="0"/></clipPath></defs><g clip-path="url(#master_svg0_23_1511)"><g><path d="M27.6095,7.05721101171875C28.1301,7.57791001171875,28.1301,8.42212701171875,27.6095,8.94283701171875C27.6095,8.94283701171875,12.94281,23.60948701171875,12.94281,23.60948701171875C12.42211,24.13018701171875,11.57789,24.13018701171875,11.05719,23.60948701171875C11.05719,23.60948701171875,4.390524,16.94278701171875,4.390524,16.94278701171875C3.869825,16.42212701171875,3.869825,15.57791701171875,4.390524,15.05720701171875C4.911223,14.53651701171875,5.75544,14.53651701171875,6.2761499999999995,15.05720701171875C6.2761499999999995,15.05720701171875,12,20.78108701171875,12,20.78108701171875C12,20.78108701171875,25.7239,7.05721101171875,25.7239,7.05721101171875C26.2445,6.53651201171875,27.0888,6.53651201171875,27.6095,7.05721101171875C27.6095,7.05721101171875,27.6095,7.05721101171875,27.6095,7.05721101171875Z" fill-rule="evenodd" fill="#F79218" fill-opacity="1"/></g></g></svg>