<svg xmlns="http://www.w3.org/2000/svg" xmlns:xlink="http://www.w3.org/1999/xlink" fill="none" version="1.1" width="20" height="20" viewBox="0 0 20 20"><defs><clipPath id="master_svg0_1_0419"><rect x="0" y="0" width="20" height="20" rx="0"/></clipPath></defs><g clip-path="url(#master_svg0_1_0419)"><g><path d="M16.744756494140624,13.583251953125L14.798446494140626,13.583251953125Q14.699956494140626,13.583251953125,14.603356494140625,13.602451953125Q14.506756494140625,13.621651953125,14.415766494140625,13.659351953125Q14.324766494140626,13.697051953125,14.242876494140624,13.751751953125Q14.160986494140625,13.806451953125,14.091336494140625,13.876151953125Q14.021696494140626,13.945751953125,13.966976494140624,14.027651953125Q13.912256494140625,14.109551953125,13.874566494140625,14.200551953125Q13.836876494140625,14.291551953125,13.817666494140624,14.388151953125Q13.798446494140626,14.484751953125,13.798446494140626,14.583251953125Q13.798446494140626,14.681751953125,13.817666494140624,14.778351953125Q13.836876494140625,14.874951953125,13.874566494140625,14.965951953125Q13.912256494140625,15.056951953125,13.966976494140624,15.138851953125Q14.021696494140626,15.220751953125,14.091336494140625,15.290351953125Q14.160986494140625,15.359951953125,14.242876494140624,15.414751953125Q14.324766494140626,15.469451953125,14.415766494140625,15.507151953125Q14.506756494140625,15.544851953125,14.603356494140625,15.564051953125Q14.699956494140626,15.583251953125,14.798446494140626,15.583251953125L16.744756494140624,15.583251953125Q18.916656494140625,15.583251953125,18.916656494140625,13.411351953125L18.916656494140625,3.255131953125Q18.916656494140625,1.083251953125,16.744756494140624,1.083251953125L6.588536494140625,1.083251953125Q4.416656494140625,1.083251953125,4.416656494140625,3.255131953125L4.416656494140625,5.179751953125Q4.416656494140625,5.278241953125001,4.435871494140625,5.374841953124999Q4.455086494140625,5.471441953125,4.492777494140625,5.5624319531249995Q4.530468494140625,5.653431953125001,4.585186494140625,5.735321953125Q4.639905494140625,5.817211953125,4.709549494140625,5.886861953125Q4.779193494140625,5.9565019531250005,4.861086494140625,6.011221953125Q4.942978494140625,6.065941953125,5.033973494140625,6.103631953125Q5.124967494140625,6.141321953125,5.221566494140625,6.160531953125Q5.318165094140625,6.179751953125,5.416656494140625,6.179751953125Q5.515147894140625,6.179751953125,5.611746494140625,6.160531953125Q5.708345494140625,6.141321953125,5.799339494140625,6.103631953125Q5.890334494140625,6.065941953125,5.972226494140625,6.011221953125Q6.054119494140625,5.9565019531250005,6.123763494140625,5.886861953125Q6.193407494140625,5.817211953125,6.248126494140625,5.735321953125Q6.302844494140625,5.653431953125001,6.340535494140625,5.5624319531249995Q6.378226494140625,5.471441953125,6.397441494140625,5.374841953124999Q6.416656494140625,5.278241953125001,6.416656494140625,5.179751953125L6.416656494140625,3.255131953125Q6.416656494140625,3.083251953125,6.588536494140625,3.083251953125L16.744756494140624,3.083251953125Q16.916656494140625,3.083251953125,16.916656494140625,3.255131953125L16.916656494140625,13.411351953125Q16.916656494140625,13.583251953125,16.744756494140624,13.583251953125Z" fill-rule="evenodd" fill="#111111" fill-opacity="1"/></g><g><path d="M15.583343505859375,16.744848046875L15.583343505859375,6.588628046875Q15.583343505859375,4.416748046875,13.411443505859374,4.416748046875L3.255223505859375,4.416748046875Q2.355598505859375,4.416748046875,1.719471505859375,5.052875046875Q1.083343505859375,5.689003046875,1.083343505859375,6.588628046875L1.083343505859375,16.744848046875Q1.083343505859375,18.916748046875,3.255223505859375,18.916748046875L13.411443505859374,18.916748046875Q15.583343505859375,18.916748046875,15.583343505859375,16.744848046875ZM13.411443505859374,6.416748046875Q13.583343505859375,6.416748046875,13.583343505859375,6.588628046875L13.583343505859375,16.744848046875Q13.583343505859375,16.916748046875,13.411443505859374,16.916748046875L3.255223505859375,16.916748046875Q3.083343505859375,16.916748046875,3.083343505859375,16.744848046875L3.083343505859375,6.588628046875Q3.083343505859375,6.416748046875,3.255223505859375,6.416748046875L13.411443505859374,6.416748046875Z" fill-rule="evenodd" fill="#111111" fill-opacity="1"/></g></g></svg>