<svg xmlns="http://www.w3.org/2000/svg" xmlns:xlink="http://www.w3.org/1999/xlink" fill="none" version="1.1" width="120" height="120" viewBox="0 0 120 120"><defs><mask id="master_svg0_27_2654" style="mask-type:alpha" maskUnits="userSpaceOnUse"><g><rect x="0" y="0" width="120" height="120" rx="0" fill="#FFFFFF" fill-opacity="1"/></g></mask></defs><g mask="url(#master_svg0_27_2654)"><g style="opacity:0.6000000238418579;"><path d="M60,40.31249809265137C66.2055,40.31249809265137,71.25,35.26569809265136,71.25,29.062498092651367C71.25,22.859248092651367,66.2055,17.812498092651367,60,17.812498092651367C53.7945,17.812498092651367,48.75,22.859248092651367,48.75,29.062498092651367C48.75,35.26569809265136,53.7945,40.31249809265137,60,40.31249809265137Z" fill="#F79218" fill-opacity="1"/></g><g style="opacity:0.20000000298023224;"><path d="M90.75,40.49999809265137C96.9555,40.49999809265137,102,35.45319809265136,102,29.249998092651367C102,23.046748092651367,96.9555,17.999998092651367,90.75,17.999998092651367C84.5445,17.999998092651367,79.5,23.046748092651367,79.5,29.249998092651367C79.5,35.45319809265136,84.5445,40.49999809265137,90.75,40.49999809265137Z" fill="#F79218" fill-opacity="1"/></g><g style="opacity:0.6000000238418579;"><path d="M90.9375,48.749996185302734C84.732,48.749996185302734,79.6875,53.79674618530274,79.6875,59.999996185302734C79.6875,66.20319618530273,84.732,71.24999618530273,90.9375,71.24999618530273C97.143,71.24999618530273,102.1875,66.20319618530273,102.1875,59.999996185302734C102.1875,53.79674618530274,97.143,48.749996185302734,90.9375,48.749996185302734ZM29.0625,79.68749618530273C22.857,79.68749618530273,17.8125,84.73419618530274,17.8125,90.93749618530273C17.8125,97.14069618530274,22.857,102.18749618530273,29.0625,102.18749618530273C35.268,102.18749618530273,40.3125,97.14069618530274,40.3125,90.93749618530273C40.3125,84.73419618530274,35.268,79.68749618530273,29.0625,79.68749618530273Z" fill="#F79218" fill-opacity="1"/></g><g><path d="M90.9375,79.68749809265137C85.7108,79.68749809265137,81.3435,83.28749809265136,80.0858,88.12499809265137L70.8518,88.12499809265137C69.8271,84.18619809265137,66.7513,81.11039809265137,62.8125,80.08579809265137L62.8125,70.85179809265136C67.65,69.59169809265137,71.25,65.22669809265136,71.25,59.99999809265137C71.25,53.79669809265137,66.2055,48.74999809265137,60,48.74999809265137C54.7733,48.74999809265137,50.406,52.34999809265137,49.1505,57.18749809265137L39.912,57.18749809265137C38.887100000000004,53.25019809265137,35.8123,50.17539809265137,31.875,49.15049809265137L31.875,39.911998092651366C36.7125,38.65649809265137,40.3125,34.286998092651366,40.3125,29.062498092651367C40.3125,22.859248092651367,35.268,17.812498092651367,29.0625,17.812498092651367C22.857,17.812498092651367,17.8125,22.859248092651367,17.8125,29.062498092651367C17.8125,34.28919809265137,21.4125,38.65649809265137,26.25,39.91419809265137L26.25,49.15049809265137C21.4125,50.405998092651366,17.8125,54.77549809265137,17.8125,59.99999809265137C17.8125,66.20319809265138,22.857,71.24999809265137,29.0625,71.24999809265137C34.2893,71.24999809265137,38.6565,67.64999809265137,39.9143,62.81249809265137L49.1505,62.81249809265137C50.1747,66.75069809265136,53.2496,69.82639809265137,57.1875,70.85179809265136L57.1875,80.08579809265137C52.35,81.34569809265136,48.75,85.71069809265137,48.75,90.93749809265137C48.75,97.14069809265136,53.7945,102.18749809265137,60,102.18749809265137C65.2268,102.18749809265137,69.594,98.58749809265137,70.8518,93.74999809265137L80.0858,93.74999809265137C81.3457,98.58749809265137,85.7108,102.18749809265137,90.9375,102.18749809265137C97.143,102.18749809265137,102.1875,97.14069809265136,102.1875,90.93749809265137C102.1875,84.73429809265137,97.143,79.68749809265137,90.9375,79.68749809265137Z" fill="#F79218" fill-opacity="1"/></g></g></svg>