<svg xmlns="http://www.w3.org/2000/svg" xmlns:xlink="http://www.w3.org/1999/xlink" fill="none" version="1.1" width="24" height="24" viewBox="0 0 24 24"><defs><clipPath id="master_svg0_46_2370"><rect x="0" y="0" width="24" height="24" rx="0"/></clipPath></defs><g clip-path="url(#master_svg0_46_2370)"><g><path d="M8.07205984375,18.4764314453125L1.31281684375,18.4764314453125C1.08006925075,18.4764314453125,1.07958984375,18.4764314453125,1.07958984375,18.251131445312502Q1.07958984375,15.4798314453125,1.07958984375,12.7087014453125C1.07958984375,12.4947314453125,1.07952577185,12.4947114453125,1.29102484375,12.4947114453125Q4.56529984375,12.4947114453125,6.88954984375,12.4947014453125C7.17367984375,12.4947014453125,7.10894984375,12.4709814453125,7.13661984375,12.2644214453125C7.34746984375,10.6238114453125,8.45331984375,9.2366414453125,10.00568984375,8.665491445312501C10.08336984375,8.6474014453125,10.13492984375,8.5736814453125,10.12527984375,8.4945114453125Q10.12527984375,7.4814914453125,10.12527984375,6.4684714453125C10.12527984375,6.3721114453125,10.08919984375,6.3395014453125,9.99580984375,6.3399914453125C9.11818984375,6.3399914453125,8.24056984375,6.3424614453125,7.36294984375,6.3399914453125C7.24236984375,6.3399914453125,7.19739984375,6.4205414453125,7.13711984375,6.493671445312501C6.65827984375,7.0698614453125,6.03712984375,7.3460914453125,5.29638984375,7.3036014453125C4.29842984375,7.2439814453125,3.46703984375,6.517131445312501,3.27464984375,5.5360814453125C3.08224984375,4.5550414453125,3.57753984375,3.5680134453125,4.4790498437499995,3.1358864453125C5.44364984375,2.6822524453125,6.49174984375,2.9318001453125,7.16280984375,3.7654414453125C7.22584984375,3.8507244453125002,7.32774984375,3.8983284453125,7.43360984375,3.8919454453125Q11.52818984375,3.8884854453125,15.62228984375,3.8919454453125C15.72358984375,3.8982084453125,15.82118984375,3.8521514453125,15.88068984375,3.7698884453125C16.42428984375,3.0894364453125,17.14328984375,2.8112264453125,17.99078984375,2.9500844453125C18.75518984375,3.0751054453125,19.31408984375,3.5198464453125,19.62538984375,4.2378514453125C20.06868984375,5.2501214453125,19.68918984375,6.4340314453125,18.73998984375,6.9999414453125C17.79078984375,7.5658414453125,16.56888984375,7.3367714453125,15.88908984375,6.4655114453125C15.83698984375,6.3844014453125,15.74578984375,6.3368614453125005,15.64948984375,6.3404914453125C14.79898984375,6.3439514453125,13.94908984375,6.345431445312499,13.09908984375,6.3404914453125C12.95828984375,6.3404914453125,12.92018984375,6.3849614453125,12.92168984375,6.5228314453125C12.92808984375,7.1706714453125,12.92618984375,7.8185114453125,12.92168984375,8.466351445312501C12.92168984375,8.5775314453125,12.95238984375,8.6333714453125,13.06598984375,8.6763614453125C13.91988984375,8.9925814453125,14.65398984375,9.5670714453125,15.16618984375,10.319921445312499C15.45628984375,10.728271445312501,15.66658984375,11.1878614453125,15.78578984375,11.6744114453125C15.84068984375,11.9101214453125,15.88218984375,12.1497814453125,15.91828984375,12.3894514453125C15.93308984375,12.4882814453125,15.98798984375,12.4942114453125,16.06208984375,12.4947014453125C16.38378984375,12.4947014453125,16.70448984375,12.4843314453125,17.02668984375,12.5016214453125Q19.85228984375,12.6498714453125,21.62628984375,14.8597314453125C22.10108984375,15.4566314453125,22.45648984375,16.1395314453125,22.67288984375,16.8709314453125C22.84408984375,17.4532314453125,22.92728984375,18.0578314453125,22.91998984375,18.664731445312498C22.91998984375,19.4094314453125,22.91998984375,20.1536314453125,22.91998984375,20.8983314453125C22.91998984375,21.0791314453125,22.91498984375,21.0841314453125,22.73418984375,21.0841314453125Q19.93528984375,21.0841314453125,17.13688984375,21.0875314453125C16.99208984375,21.0875314453125,16.95898984375,21.0381314453125,16.96188984375,20.9037314453125C16.96978984375,20.5272314453125,16.96588984375,20.1501314453125,16.96188984375,19.7736314453125C16.96188984375,19.1524314453125,16.622889843750002,18.6864314453125,16.03048984375,18.5155314453125C15.87528984375,18.471031445312498,15.70278984375,18.478431445312502,15.53628984375,18.4779314453125Q11.80788984375,18.4749314453125,8.07205984375,18.4764314453125ZM8.991689843749999,13.1420314453125L1.93297884375,13.1420314453125C1.7274098437499998,13.1420314453125,1.72687684375,13.1420314453125,1.72687684375,13.3500314453125L1.72687684375,17.5543314453125C1.72687684375,17.831031445312497,1.72699184375,17.8311314453125,2.00322484375,17.8311314453125Q9.23914984375,17.8311314453125,15.52588984375,17.835031445312502C15.78628984375,17.8354314453125,16.04558984375,17.867431445312498,16.29828984375,17.9304314453125C16.984689843749997,18.1048314453125,17.56378984375,18.8362314453125,17.59638984375,19.5438314453125C17.60778984375,19.7869314453125,17.60928984375,20.0310314453125,17.60188984375,20.2742314453125C17.59788984375,20.4051314453125,17.63738984375,20.4491314453125,17.77138984375,20.4486314453125Q19.94908984375,20.4427314453125,22.12728984375,20.4486314453125C22.24048984375,20.4486314453125,22.27858984375,20.4145314453125,22.27558984375,20.3004314453125C22.27018984375,19.6891314453125,22.27558984375,19.0778314453125,22.26968984375,18.4670314453125C22.26608984375,17.6088314453125,22.04068984375,16.7660314453125,21.61538984375,16.0205314453125C20.53668984375,14.1427314453125,18.90298984375,13.1648314453125,16.73458984375,13.1480314453125C14.15608984375,13.1262314453125,11.57368984375,13.1420314453125,8.991689843749999,13.1420314453125ZM8.81230984375,5.6980814453125L10.56309984375,5.6980814453125C10.76471984375,5.6980814453125,10.76520984375,5.6980814453125,10.76520984375,5.9066114453125C10.76520984375,6.7012214453125,10.76520984375,7.4963114453125,10.76520984375,8.290921445312499C10.76520984375,8.410011445312499,10.79386984375,8.4614014453125,10.92135984375,8.441631445312499C11.32148984375,8.3788714453125,11.72898984375,8.3788714453125,12.12908984375,8.441631445312499C12.25808984375,8.4618914453125,12.29508984375,8.4164314453125,12.29408984375,8.2874614453125C12.28918984375,7.4884114453125,12.29168984375,6.6888614453125,12.29168984375,5.8893214453125005C12.29168984375,5.700551445312501,12.29168984375,5.7000614453125,12.48488984375,5.6995614453125C13.63818984375,5.6995614453125,14.79158984375,5.703021445312499,15.94398984375,5.6961014453125C16.10698984375,5.6961014453125,16.19748984375,5.7455214453125,16.279989843750002,5.8868514453125C16.86028984375,6.8877114453125,18.29328984375,6.9219914453125,18.92078984375,5.9500214453125C19.54838984375,4.9780514453125,18.92728984375,3.6862084453125,17.77628984375,3.5692574453125C17.11808984375,3.5074884453125,16.60758984375,3.7876744453124997,16.27008984375,4.3599114453125C16.19298984375,4.4903614453125,16.110989843749998,4.5402714453125,15.95678984375,4.5402714453125Q11.54648984375,4.5328614453125,7.13563984375,4.5402714453125C6.95575984375,4.5402714453125,6.86186984375,4.4854214453125,6.77143984375,4.3302614453125C6.36158984375,3.6228504453125,5.47244984375,3.3558784453125,4.74070984375,3.7205104453124997C4.00896984375,4.0851414453125,3.68669984375,4.9557614453125005,4.00465984375,5.7089514453125005C4.20232984375,6.186801445312501,4.56750984375,6.5075114453125,5.07302984375,6.6191914453125005C5.80239984375,6.7802914453125,6.41416984375,6.4951614453125,6.79911984375,5.8463314453125C6.84748984375,5.7471414453125,6.95209984375,5.6881514453125,7.06200984375,5.6980814453125C7.64560984375,5.7015414453125,8.22919984375,5.6980814453125,8.81230984375,5.6980814453125ZM11.52228984375,12.4947014453125L15.11968984375,12.4947014453125C15.28768984375,12.4947014453125,15.29708984375,12.4838314453125,15.27538984375,12.3385514453125C15.20328984375,11.8054614453125,15.01988984375,11.2934914453125,14.73718984375,10.8358214453125C14.19368984375,9.974011445312499,13.42918984375,9.4072114453125,12.44388984375,9.155691445312499C11.88468984375,9.0162314453125,11.30088984375,9.0079414453125,10.73802984375,9.131481445312499C10.15161984375,9.2505014453125,9.60358984375,9.5122114453125,9.14239984375,9.8934714453125C8.37942984375,10.5210414453125,7.93468984375,11.3304714453125,7.78050984375,12.3029714453125C7.75233984375,12.4818514453125,7.76074984375,12.4947014453125,7.93863984375,12.4947014453125L11.52228984375,12.4947014453125Z" fill="#111111" fill-opacity="1"/><path d="M15.53478984375,18.9779314453125L15.53618984375,18.9779314453125Q15.55978984375,18.9780314453125,15.60418984375,18.9778314453125Q15.82628984375,18.9771314453125,15.89178984375,18.9959314453125Q16.46188984375,19.1604314453125,16.46198984375,19.7788314453125Q16.46978984375,20.5243314453125,16.46208984375,20.8927314453125Q16.455389843749998,21.1934314453125,16.62088984375,21.3789314453125Q16.80698984375,21.5876314453125,17.13718984375,21.5876314453125L22.73418984375,21.5841314453125Q23.41998984375,21.5841314453125,23.41998984375,20.8983314453125L23.41998984375,19.7804314453125L23.41988984375,18.6708314453125Q23.43198984375,17.6803314453125,23.15228984375,16.7291314453125Q22.79708984375,15.5284314453125,22.01618984375,14.5467314453125Q20.10198984375,12.1622914453125,17.05348984375,12.0023414453125Q16.813889843749998,11.9894814453125,16.36008984375,11.9928614453125Q16.31778984375,11.7544714453125,16.27148984375,11.5553914453125Q16.06828984375,10.7262214453125,15.57958984375,10.0386814453125Q14.75708984375,8.8296614453125,13.42288984375,8.2791214453125Q13.42768984375,7.4679614453125,13.42418984375,6.8408114453125L15.54908984375,6.8405014453124995Q16.16368984375,7.5835714453125,17.12138984375,7.7631014453125Q18.12178984375,7.9506414453125,18.99608984375,7.4294014453125Q19.87028984375,6.9081614453124995,20.18098984375,5.9389114453125Q20.49168984375,4.9696714453125,20.08418984375,4.0389514453125Q19.49938984375,2.6901604453125,18.07158984375,2.4566634453125Q16.53788984375,2.2053724453125,15.54388984375,3.3919454453125L7.50314984375,3.3919454453125Q6.16606984375,1.7899714453125,4.262929843749999,2.6850074453125Q2.38273984375,3.5862454453125,2.7839898437499997,5.6323014453125Q3.18523984375,7.6783714453125,5.26774984375,7.8027714453125Q6.61587984375,7.8801214453125,7.49905984375,6.8401314453125L8.40793984375,6.8410614453125L9.27575984375,6.8403914453125L9.62527984375,6.8401314453125L9.62527984375,8.2766814453125Q7.10233984375,9.3034814453125,6.67039984375,11.9947014453125L1.29102484375,11.9947114453125Q0.92370984375,11.9947114453125,0.75049984375,12.1698714453125Q0.57958984375,12.3426914453125,0.57958984375,12.7085014453125L0.57958984375,18.251131445312502Q0.57958984375,18.9764314453125,1.31281484375,18.9764314453125L8.071959843750001,18.9764314453125L15.53478984375,18.9779314453125ZM9.62527984375,8.469921445312501Q9.62344984375,8.5099014453125,9.62894984375,8.5550114453125Q9.62527984375,8.524871445312499,9.62527984375,8.4945114453125L9.62527984375,8.469921445312501ZM9.80892984375,8.2051714453125Q9.84670984375,8.1891414453125,9.89223984375,8.178531445312501Q9.86209984375,8.1855514453125,9.83304984375,8.1962414453125Q9.82097984375,8.200681445312501,9.80892984375,8.2051714453125ZM7.08120984375,5.1980814453125Q6.58763984375,5.1651214453125,6.36076984375,5.605111445312501Q5.94073984375,6.298791445312499,5.18088984375,6.1309614453125Q4.67398984375,6.0189814453125,4.4652998437499996,5.514491445312499Q4.08228984375,4.6072414453125,4.963709843749999,4.1680314453125Q5.84512984375,3.7288124453125002,6.33944984375,4.5820214453125Q6.60652984375,5.0402714453125,7.13563984375,5.0402714453125L15.95678984375,5.0402714453125Q16.44878984375,5.0402714453125,16.70078984375,4.6139214453125Q17.060389843750002,4.0042714453125,17.72578984375,4.0667014453125Q18.31028984375,4.1260914453125,18.56488984375,4.6556414453125Q18.81948984375,5.185191445312499,18.50078984375,5.6788214453125Q18.18208984375,6.1724414453125,17.59468984375,6.1583914453125Q17.00728984375,6.1443414453125005,16.711789843749997,5.6347314453125Q16.45568984375,5.1961014453125,15.94348984375,5.1961014453125L12.48358984375,5.1995614453125Q11.79168984375,5.2013314453124995,11.79168984375,5.8898314453125L11.79378984375,7.9025214453125Q11.52938984375,7.8861614453125,11.26518984375,7.9019814453125L11.26518984375,5.9066114453125Q11.26518984375,5.1980814453125,10.56309984375,5.1980814453125L8.81230984375,5.1980814453125L7.08120984375,5.1980814453125ZM8.35577984375,11.9947014453125L11.52228984375,11.9947014453125L14.69798984375,11.9947014453125Q14.57248984375,11.5206214453125,14.31188984375,11.0985814453125Q13.59758984375,9.9662414453125,12.32018984375,9.640151445312501Q11.58648984375,9.4571614453125,10.84521984375,9.6198514453125Q10.06696984375,9.777881445312499,9.46097984375,10.2788314453125Q8.63048984375,10.9619514453125,8.35577984375,11.9947014453125ZM16.73238984375,13.6479314453125L16.734189843750002,13.6480314453125Q19.68978984375,13.6723314453125,21.18108984375,16.2682314453125Q21.76478984375,17.2913314453125,21.76968984375,18.4687314453125L21.77448984375,19.9486314453125L18.10638984375,19.9486314453125Q18.10578984375,19.7326314453125,18.09588984375,19.5208314453125Q18.01898984375,17.8518314453125,16.41918984375,17.4452314453125Q15.97968984375,17.3357314453125,15.52608984375,17.335031445312502L2.22687984375,17.3312314453125L2.22687984375,13.6420314453125L8.99198984375,13.6420314453125L9.87392984375,13.6415314453125L16.73078984375,13.6479314453125L16.73238984375,13.6479314453125Z" fill-rule="evenodd" fill="#111111" fill-opacity="1"/></g></g></svg>