<svg xmlns="http://www.w3.org/2000/svg" xmlns:xlink="http://www.w3.org/1999/xlink" fill="none" version="1.1" width="40" height="40" viewBox="0 0 40 40"><defs><clipPath id="svg0_14_1078"><rect x="8.331473350524902" y="8.3330078125" width="23.333332061767578" height="23.333332061767578" rx="0"/></clipPath></defs><g><g style="opacity:0.4000000059604645;"></g><g clip-path="url(#svg0_14_1078)"><g><path d="M17.801701788024904,23.9772453125L17.803601788024903,23.9776453125L17.8039417880249,23.9776453125L18.052291788024903,22.4983453125Q16.1706517880249,22.181945312499998,14.949181788024902,21.265845312499998Q12.971121788024902,19.782335312500003,12.971121788024902,17.5689953125Q12.971121788024902,16.2041853125,13.924071788024902,15.0234753125Q14.205561788024902,14.6747753125,14.205291788024903,13.1812453125Q14.205091788024902,12.1211853125,14.263581788024903,11.6654923125Q14.485421788024903,11.7876153125,14.784131788024903,11.967205312499999Q16.5853617880249,13.0501253125,17.681791788024903,12.7708953125Q18.801781788024904,12.4856553125,19.998901788024902,12.4856553125Q21.375571788024903,12.4856553125,22.640721788024905,12.8602553125Q23.5496217880249,13.1293753125,25.765721788024905,11.9173453125Q25.895821788024904,11.8461553125,26.010121788024904,11.7846053125Q25.977621788024905,12.1332453125,25.903521788024904,12.6698753125Q25.649321788024903,14.5114253125,26.0294217880249,14.9694153125Q27.0267217880249,16.1708153125,27.0267217880249,17.5689953125Q27.0267217880249,19.8957453125,25.199821788024902,21.265845312499998Q24.1391217880249,22.061345312500002,22.4443217880249,22.4135453125Q22.381421788024902,22.4266453125,22.321721788024902,22.4501453125Q22.262021788024903,22.4737453125,22.207181788024904,22.5070453125Q22.152341788024902,22.540445312499997,22.1039717880249,22.5826453125Q22.055591788024902,22.6247453125,22.015091788024904,22.6745453125Q21.974581788024903,22.7243453125,21.943121788024904,22.7803453125Q21.911671788024904,22.836245312499997,21.8901717880249,22.896745312500002Q21.8686817880249,22.9572453125,21.8577817880249,23.0204453125Q21.846871788024902,23.0837453125,21.846871788024902,23.1479453125Q21.846871788024902,23.221745312499998,21.861281788024904,23.2942453125Q21.875691788024902,23.366645312499998,21.9039617880249,23.4349453125Q21.9322317880249,23.5031453125,21.973261788024903,23.5645453125Q22.0143117880249,23.6259453125,22.066541788024903,23.6782453125Q22.1187717880249,23.730445312500002,22.180191788024903,23.771545312500002Q22.2416217880249,23.8125453125,22.3098217880249,23.8408453125Q22.378121788024902,23.8690453125,22.4505217880249,23.8834453125Q22.523021788024902,23.8979453125,22.596821788024904,23.8979453125Q22.674021788024902,23.8979453125,22.749421788024904,23.8822453125Q24.771621788024902,23.4619453125,26.099821788024904,22.4658453125Q28.5267217880249,20.6457753125,28.5267217880249,17.5689953125Q28.5267217880249,15.6913753125,27.268121788024903,14.115145312500001Q27.263721788024903,14.0288453125,27.271921788024905,13.8877953125Q27.288021788024903,13.6099753125,27.389421788024904,12.8749953125Q27.555021788024902,11.6757223125,27.532021788024903,11.2093883125Q27.5040217880249,10.6411628125,27.243721788024903,10.3282503125Q26.7613217880249,9.7484413125,26.0113217880249,10.0978263125Q25.708721788024903,10.2387953125,25.045921788024902,10.6013213125Q23.377221788024904,11.5139643125,23.0665217880249,11.4219783125Q21.5929817880249,10.9856563125,19.998901788024902,10.9856563125Q18.613761788024902,10.9856563125,17.311591788024902,11.3172973125Q16.821781788024904,11.4420403125,15.557021788024903,10.6816500125Q14.843491788024902,10.2526643125,14.461651788024902,10.0885933125Q13.702481788024903,9.7623953125,13.184966788024902,10.3668893125Q12.914025788024903,10.6833655125,12.805899788024902,11.2781443125Q12.705042788024903,11.8329353125,12.705288788024902,13.1815153125Q12.705399788024902,13.7954453125,12.692367788024903,14.0159653125Q12.686415788024902,14.1166653125,12.678039788024902,14.1808253125Q11.471121788024902,15.7333353125,11.471121788024902,17.5689953125Q11.471121788024902,20.532355312500002,14.049181788024903,22.4658453125Q15.562701788024903,23.600945312500002,17.801701788024904,23.9772453125Z" fill-rule="evenodd" fill="#99A0AF" fill-opacity="1"/></g><g><path d="M18.4812933505249,23.74262225Q18.575353350524903,23.63909725,18.625773350524902,23.50862625Q18.6761833505249,23.37815525,18.6761833505249,23.23828125Q18.6761833505249,23.16441275,18.661773350524903,23.09196325Q18.647363350524902,23.01951425,18.619093350524903,22.95126825Q18.590833350524903,22.88302325,18.5497933505249,22.82160325Q18.508753350524902,22.760184250000002,18.456523350524904,22.70795125Q18.404283350524903,22.65571825,18.3428633505249,22.614679250000002Q18.281443350524903,22.57364025,18.213203350524903,22.54537125Q18.1449533505249,22.51710325,18.072506350524904,22.50269225Q18.0000573505249,22.48828125,17.926188350524903,22.48828125Q17.767649350524902,22.48828125,17.6226723505249,22.55244025Q17.4776963505249,22.61659825,17.3710853505249,22.73393925Q16.331473350524902,23.87818725,16.331473350524902,25.00408125L16.331473350524902,29.24112125Q16.331473350524902,29.31499125,16.3458843505249,29.387441250000002Q16.360295350524904,29.45988125,16.3885633505249,29.52813125Q16.416832350524903,29.59638125,16.457871350524904,29.65780125Q16.498910350524902,29.71922125,16.551143350524903,29.77145125Q16.603376350524904,29.82368125,16.6647953505249,29.86472125Q16.726215350524903,29.90576125,16.7944603505249,29.93403125Q16.862706350524903,29.96230125,16.9351553505249,29.97671125Q17.007604850524903,29.99112125,17.081473350524902,29.99112125Q17.155341850524902,29.99112125,17.227791350524903,29.97671125Q17.300240350524902,29.96230125,17.368486350524904,29.93403125Q17.4367313505249,29.90576125,17.498151350524903,29.86472125Q17.5595703505249,29.82368125,17.6118033505249,29.77145125Q17.664036350524903,29.71922125,17.7050753505249,29.65780125Q17.746114350524902,29.59638125,17.774383350524904,29.52813125Q17.8026513505249,29.45988125,17.817062350524903,29.387441250000002Q17.831473350524902,29.31499125,17.831473350524902,29.24112125L17.831473350524902,25.00408125Q17.831473350524902,24.45802125,18.480873350524902,23.74307825L18.4812933505249,23.74262225L18.4812933505249,23.74262225Z" fill-rule="evenodd" fill="#99A0AF" fill-opacity="1"/></g><g><path d="M21.998072944274902,23.6029565Q21.9234339442749,23.5049875,21.8840449442749,23.3882935Q21.844656944274902,23.2715995,21.844656944274902,23.1484375Q21.844656944274902,23.074569,21.8590679442749,23.0021195Q21.873478944274904,22.9296705,21.9017469442749,22.8614245Q21.930015944274903,22.7931795,21.971054944274904,22.7317595Q22.012093944274902,22.670340500000002,22.064326944274903,22.6181075Q22.116559944274904,22.5658745,22.1779789442749,22.524835500000002Q22.239398944274903,22.4837965,22.3076439442749,22.4555275Q22.375889944274903,22.4272595,22.4483389442749,22.4128485Q22.520788444274903,22.3984375,22.594656944274902,22.3984375Q22.681264744274902,22.3984375,22.765592944274903,22.4181765Q22.849920944274903,22.4379155,22.927531944274904,22.4763555Q23.005141944274904,22.5147945,23.071947944274903,22.5699105Q23.1387549442749,22.6250265,23.191240944274902,22.6939185Q24.1450869442749,23.9459025,24.1450869442749,25.0350375L24.1450869442749,29.241397499999998Q24.1450869442749,29.3152675,24.130676944274903,29.3877175Q24.1162669442749,29.4601675,24.087996944274902,29.5284175Q24.059726944274903,29.5966575,24.0186869442749,29.6580775Q23.977646944274902,29.7194975,23.925416944274904,29.7717275Q23.873186944274902,29.823967500000002,23.8117669442749,29.8650075Q23.750346944274902,29.9060475,23.682096944274903,29.9343075Q23.613856944274904,29.962577500000002,23.541405944274903,29.9769875Q23.468956944274904,29.991397499999998,23.395087944274902,29.991397499999998Q23.3212199442749,29.991397499999998,23.248770944274902,29.9769875Q23.176320944274902,29.962577500000002,23.1080759442749,29.9343075Q23.039829944274903,29.9060475,22.978410944274902,29.8650075Q22.916990944274904,29.823967500000002,22.864757944274903,29.7717275Q22.8125249442749,29.7194975,22.771485944274904,29.6580775Q22.730446944274902,29.5966575,22.702178944274902,29.5284175Q22.6739103442749,29.4601675,22.659499344274902,29.3877175Q22.645088344274903,29.3152675,22.645088344274903,29.241397499999998L22.645088244274902,25.0350375Q22.645088244274902,24.4522075,21.998072944274902,23.6029565Z" fill-rule="evenodd" fill="#99A0AF" fill-opacity="1"/></g><g><path d="M11.341481581774902,22.7634215Q12.358040381774902,22.8879125,12.863490381774902,23.7217145Q14.136560381774903,25.8215225,15.053800381774902,25.8215225L17.0844303817749,25.8215225Q17.1583003817749,25.8215225,17.230750381774904,25.8359425Q17.303200381774904,25.8503525,17.371440381774903,25.8786125Q17.439690381774902,25.906882500000002,17.5011103817749,25.9479225Q17.562530381774902,25.9889625,17.614760381774904,26.0411925Q17.6669903817749,26.0934325,17.708030381774904,26.1548525Q17.749070381774903,26.2162725,17.777340381774902,26.284512499999998Q17.8056103817749,26.3527625,17.820020381774903,26.4252125Q17.8344303817749,26.4976625,17.8344303817749,26.5715225Q17.8344303817749,26.6453925,17.820020381774903,26.7178425Q17.8056103817749,26.7902925,17.777340381774902,26.8585425Q17.749070381774903,26.9267825,17.708030381774904,26.9882025Q17.6669903817749,27.049622499999998,17.614760381774904,27.1018525Q17.562530381774902,27.1540925,17.5011103817749,27.1951325Q17.439690381774902,27.2361725,17.371440381774903,27.264432499999998Q17.303200381774904,27.2927025,17.230750381774904,27.3071125Q17.1583003817749,27.3215225,17.0844303817749,27.3215225L15.053800381774902,27.3215225Q13.291830381774902,27.3215225,11.580817381774903,24.4993725Q11.452807381774903,24.2882025,11.158909181774902,24.2522685Q11.091298381774902,24.2440025,11.026282381774902,24.2236905Q10.961266381774902,24.2033795,10.900974381774903,24.1716875Q10.840681381774903,24.1399955,10.787084381774902,24.0979595Q10.733487381774902,24.0559245,10.688340381774902,24.004921500000002Q10.643193381774902,23.9539175,10.607973381774903,23.8956155Q10.572753381774902,23.8373135,10.548613381774903,23.7736205Q10.524472381774903,23.7099275,10.512201381774902,23.6429275Q10.499930381774902,23.5759271,10.499930381774902,23.5078125Q10.499930381774902,23.433944,10.514341381774901,23.3614945Q10.528752381774902,23.2890455,10.557020381774903,23.2207995Q10.585289381774903,23.1525545,10.626328381774902,23.0911345Q10.667367381774902,23.029715500000002,10.719600381774903,22.9774825Q10.771833381774902,22.9252495,10.833252381774903,22.884210500000002Q10.894672381774903,22.8431715,10.962917381774902,22.8149025Q11.031163381774903,22.7866345,11.103612381774902,22.7722235Q11.176061881774903,22.7578125,11.249930381774902,22.7578125Q11.295609681774902,22.7578125,11.340951381774902,22.7633565L11.341481581774902,22.7634215Z" fill-rule="evenodd" fill="#99A0AF" fill-opacity="1"/></g></g></g></svg>