<svg xmlns="http://www.w3.org/2000/svg" xmlns:xlink="http://www.w3.org/1999/xlink" fill="none" version="1.1" width="48" height="48" viewBox="0 0 48 48"><defs><mask id="svg0_1_0889" style="mask-type:alpha" maskUnits="userSpaceOnUse"><g><rect x="0" y="0" width="48.000003814697266" height="48" rx="0" fill="#FFFFFF" fill-opacity="1"/></g></mask></defs><g mask="url(#svg0_1_0889)"><g><g transform="matrix(-0.9284388422966003,0.3714853823184967,0.31395381689071655,0.9494382739067078,32.3803182705622,-6.332288335397415)"><path d="M22.066498033714296,10.167236197422028C20.655588033714295,8.810646197422027,18.307229433714294,9.836318197422028,18.346023094714294,11.792193197422028L18.946087033714296,42.04581319742203C18.989266033714294,44.22281319742203,21.507598033714295,45.41031319742203,23.217418033714296,44.05991319742203L26.233518033714294,41.67791319742203C27.513478033714293,40.66701319742202,28.252938033714294,39.12121319742202,28.236208033714295,37.49131319742203L28.061068033714292,20.43521319742203C28.058628033714292,20.19781319742203,28.152588033714295,19.96941319742203,28.321498033714292,19.802313197422027L29.276548033714292,18.85760319742203C29.695948033714295,18.44275319742203,29.712248033714296,17.771023197422025,29.313548033714294,17.336323197422026L27.845008033714294,15.735273197422028C27.782878033714294,15.667553197422027,27.718648033714295,15.601783197422026,27.652388033714296,15.538083197422027L22.066498033714296,10.167236197422028Z" fill="#F79218" fill-opacity="1"/></g><g transform="matrix(-0.7664663791656494,0.6422845125198364,0.5945112705230713,0.8040872812271118,53.32673519137684,-19.408961183255734)"><path d="M34.25275875453949,1.2072530977516174C32.29521875453949,0.30541109775161746,30.14137975453949,2.005990097751617,30.56543025453949,4.118620097751617L36.60675875453949,34.216600097751616C37.17382875453949,37.04180009775162,39.90553875453949,38.887800097751615,42.73925875453949,38.360800097751614L47.55015875453949,37.46600009775162C49.027858754539494,37.19120009775162,49.97685875453949,35.738600097751615,49.63455875453949,34.27550009775162L43.84845875453949,9.545020097751618C43.78765875453949,9.285080097751617,43.84835875453949,9.011610097751618,44.01355875453949,8.801830097751617L44.39435875453949,8.318060097751617C45.07735875453949,7.450500097751617,44.799858754539486,6.175640097751617,43.81815875453949,5.670120097751617L42.86905875453949,5.181410097751617C42.81195875453949,5.1520500977516175,42.75435875453949,5.123940097751618,42.69605875453949,5.097110097751617L34.25275875453949,1.2072530977516174Z" fill="#F79218" fill-opacity="1"/></g><g transform="matrix(0.9969978332519531,-0.0773259848356247,0.07753120362758636,0.9969978332519531,-1.573803478948867,0.15387158374626608)"><path d="M1.2613853668930053,33.54593520212173C1.0032181668930054,34.94783520212174,1.5704211668930053,36.37053520212173,2.7547001668930053,37.291535202121736L7.815350166893006,41.22743520212174C8.858200166893006,42.038535202121736,10.436660166893006,41.19973520212173,10.182220166893005,39.96973520212174L6.346380166893005,21.426075202121734C6.045270166893006,19.970423202121733,3.757590166893005,19.991453202121736,3.4885501668930052,21.452345202121734L1.2613853668930053,33.54593520212173Z" fill="#F79218" fill-opacity="1"/></g></g></g></svg>