<svg xmlns="http://www.w3.org/2000/svg" xmlns:xlink="http://www.w3.org/1999/xlink" fill="none" version="1.1" width="48" height="48" viewBox="0 0 48 48"><defs><mask id="master_svg0_21_1683" style="mask-type:alpha" maskUnits="userSpaceOnUse"><g><rect x="0" y="0" width="48" height="48" rx="8" fill="#FFFFFF" fill-opacity="1"/></g></mask></defs><g mask="url(#master_svg0_21_1683)"><g style="opacity:0.5;"><g><path d="M34.17242828063965,35.84535239648437L34.17126828063965,35.845360396484374L30.55290828063965,35.855221396484374L26.96787828063965,35.84941739648438L26.96545828063965,35.84941639648437Q26.18204828063965,35.84993139648437,25.79266828063965,36.48608539648438L25.786428280639647,36.49628339648437L25.779968280639647,36.506715396484374Q25.528233280639647,36.90877839648437,25.404910280639648,37.369976396484375Q25.39841828063965,37.39424639648438,25.392416280639647,37.42091639648437Q25.17549928063965,38.384616396484375,24.76854948063965,40.314726396484375Q24.619426280639647,41.021996396484376,24.544243280639648,41.375366396484374L24.50071828063965,41.58016639648437Q24.35187128063965,42.27965639648438,24.800945480639648,42.83638639648437Q25.250868280639647,43.39415639648438,25.96663828063965,43.39422639648438L35.28897828063965,43.395156396484374Q36.00437828063965,43.395226396484375,36.45467828063965,42.83578639648437Q36.902978280639644,42.278666396484375,36.75537828063965,41.57850639648437L36.016478280639646,38.12670639648437Q36.01547828063965,38.12209639648437,36.01447828063965,38.11702639648438Q35.88127828063965,37.451166396484375,35.63957828063965,36.81873539648438Q35.63307828063965,36.801797396484375,35.62697828063965,36.78695039648437Q35.23297828063965,35.83877839648437,34.17347828063965,35.84534639648437L34.17242828063965,35.84535239648437ZM30.55128828063965,36.85522039648438L34.176198280639646,36.84534639648437L34.17839828063965,36.84533539648437Q34.56717828063965,36.84256339648437,34.70345828063965,37.17060239648438Q34.70413828063965,37.17223339648437,34.705498280639645,37.175786396484376Q34.91717828063965,37.72965639648437,35.03387828063965,38.31306639648437Q35.03667828063965,38.32709639648437,35.03967828063965,38.34094639648438L35.77747828063965,41.78782639648438Q35.82667828063965,42.02106639648437,35.67557828063965,42.208796396484374Q35.52557828063965,42.39517639648437,35.28907828063965,42.395156396484374L25.96673828063965,42.39422639648438Q25.729050280639647,42.39420639648438,25.57928828063965,42.20854639648437Q25.42903228063965,42.022266396484376,25.478819280639648,41.78829639648438L25.522397280639648,41.58324639648438Q25.59773828063965,41.22913639648438,25.74703828063965,40.52103639648438Q26.152588280639648,38.59757639648438,26.36800828063965,37.64051639648437Q26.36962828063965,37.63330639648437,26.370968280639648,37.62829639648437Q26.45549828063965,37.31217239648438,26.627548280639648,37.03738939648437L26.636448280639648,37.02303439648438L26.64543828063965,37.00835739648438Q26.74263828063965,36.84956239648437,26.96610828063965,36.849415396484375L26.96694828063965,36.84941739648438L30.55128828063965,36.85522039648438Z" fill-rule="evenodd" fill="#FFFFFF" fill-opacity="1"/></g><g><path d="M33.729799140625,28.98135291796875C33.621779140625,29.54102591796875,33.504999140625,30.15417591796875,33.386359140625,30.76404591796875C33.353589140625,30.93199591796875,33.327269140625,31.10228591796875,33.280189140625,31.26601591796875C33.198023140625,31.55499591796875,32.932138140625,31.72575591796875,32.666712140625,31.67509591796875C32.377281140625,31.61973591796875,32.158940840625,31.36593591796875,32.211103030625,31.06897591796875Q32.413751140625,29.89615591796875,32.665788140625,28.73130691796875C32.729490140625,28.43341041796875,32.985684140625,28.30486651796875,33.290809140625,28.36210181796875C33.571929140625,28.41558321796875,33.742259140625,28.63560491796875,33.729799140625,28.98135291796875Z" fill="#FFFFFF" fill-opacity="1"/></g><g><path d="M37.884458046875,33.12526332421875C37.888158046875,33.39923632421875,37.745978046875,33.60564732421875,37.469008046875,33.66335732421875Q36.329298046875,33.90026732421875,35.184501046875,34.11183732421875C34.924152046875,34.15875732421875,34.673498046875,33.95186732421875,34.617182946875,33.67414732421875C34.554866646875,33.36826932421875,34.721969046875,33.08350732421875,35.026631046875,33.01736132421875C35.498858046875,32.91274632421875,35.975238046875,32.82408032421875,36.449778046875,32.73025432421875C36.721208046875,32.67630332421875,36.991708046875,32.61531682421875,37.264978046875,32.57684784421875C37.617648046875,32.52571432421875,37.879848046875,32.76637832421875,37.884458046875,33.12526332421875Z" fill="#FFFFFF" fill-opacity="1"/></g><g><path d="M34.13336181640625,31.39024724609375C34.20537291640625,31.25935724609375,34.25476581640625,31.10594724609375,34.35447181640625,31.00133724609375C34.83408581640625,30.49701724609375,35.32385181640625,30.00302624609375,35.81685181640625,29.51091024609375C36.07258181640625,29.25523384609375,36.37771181640625,29.24913494609375,36.61267181640625,29.48135424609375C36.84763181640625,29.71357424609375,36.85917181640625,30.02648224609375,36.60990181640625,30.28919424609375C36.17321181640625,30.74893724609375,35.72822181640625,31.20024724609375,35.28092181640625,31.64966724609375C35.18634181640625,31.74086724609375,35.08089181640625,31.81967724609375,34.96702981640625,31.88423724609375C34.60235981640625,32.10003724609375,34.17721541640625,31.84389724609375,34.13336181640625,31.39024724609375Z" fill="#FFFFFF" fill-opacity="1"/></g><g><path d="M27.601769561157226,27.98534893310547L27.601429561157225,27.985349933105468L27.601269561157224,27.985349933105468L22.386859561157227,27.98825393310547L20.536939561157226,27.98993493310547Q20.531479561157226,27.98994493310547,20.517109561157227,27.98970193310547Q20.325339561157225,27.98645493310547,20.136999561157225,28.02314493310547Q20.107339561157225,28.02892293310547,20.078169561157228,28.03635293310547Q19.097687561157226,28.28612193310547,18.816833561157228,29.53616393310547L18.502679561157226,30.96419393310547L17.714141561157227,34.60367393310547L17.71313356115723,34.608253933105466Q17.621782561157225,35.02769393310547,17.817031561157226,35.27833393310547Q18.017152561157225,35.53522393310547,18.444963561157227,35.53531393310547L18.445678561157226,35.53531393310547L29.692109561157224,35.53127393310547L29.693709561157227,35.53128393310547Q29.796509561157226,35.53280393310547,29.941109561157226,35.51533393310547Q30.419909561157226,35.457483933105465,30.468009561157224,34.98733393310547L30.468009561157224,34.98726393310547L30.468009561157224,34.986633933105466Q30.477509561157227,34.89407393310547,30.457409561157228,34.80003393310547L29.558809561157226,30.629903933105467L29.558209561157227,30.62739393310547L29.557009561157226,30.62160393310547Q29.381909561157226,29.78555393310547,29.10150956115723,28.98003493310547Q29.097709561157227,28.96913993310547,29.094109561157225,28.959480933105468Q28.733609561157227,27.98304393310547,27.602209561157224,27.98534793310547L27.601769561157226,27.98534893310547ZM27.603759561157226,28.98534693310547L27.603919561157227,28.98534693310547Q28.037339561157225,28.98439393310547,28.156019561157226,29.30583093310547L28.157059561157226,29.30879093310547Q28.416309561157227,30.05354393310547,28.578209561157227,30.826603933105467L28.580209561157226,30.835783933105468L28.582309561157224,30.84569393310547L29.376509561157228,34.53139393310547L18.752173561157228,34.53520393310547L19.479999561157225,31.17594393310547L19.793479561157227,29.75102393310547Q19.938909561157228,29.10376493310547,20.325029561157226,29.005404933105467Q20.326549561157226,29.005017933105467,20.328209561157227,29.00469493310547Q20.413439561157226,28.988089933105467,20.500169561157225,28.989558933105467Q20.523979561157226,28.98996193310547,20.538869561157227,28.989932933105468L22.387769561157228,28.988252933105468L27.602769561157224,28.98534893310547L27.603759561157226,28.98534693310547Z" fill-rule="evenodd" fill="#FFFFFF" fill-opacity="1"/></g><g><path d="M22.465886016082763,35.84532239648438L22.465216016082763,35.84532539648438L18.737986016082765,35.85200239648437L15.237536016082764,35.84532739648437L15.233026016082764,35.84532139648437Q14.330766016082764,35.846325396484374,13.903487016082764,36.64096939648437L13.902536016082763,36.64273639648437Q13.679912016082763,37.05504039648437,13.574308016082764,37.51524639648437L13.572337016082763,37.524076396484375L12.797076016082764,41.12114639648438L12.796263016082763,41.12500639648437L12.698364016082763,41.594496396484374Q12.553356016082764,42.291716396484375,13.003735816082763,42.84303639648437Q13.453041016082764,43.39304639648437,14.164396016082764,43.393186396484374L24.42623601608276,43.39521639648437Q24.773036016082763,43.39528639648437,25.00393601608276,43.135306396484374Q25.253836016082765,42.85406639648438,25.17773601608276,42.49178639648437L25.177436016082765,42.490366396484376L25.177236016082766,42.489266396484375L25.176836016082763,42.48764639648437L25.176836016082763,42.48732639648438Q25.101636016082765,42.12895639648438,24.952736016082763,41.41256639648437Q24.528236016082765,39.37014639648437,24.29973601608276,38.350116396484374L24.29953601608276,38.349356396484374L24.299036016082766,38.34712639648438Q24.11373601608276,37.49583639648438,23.799636016082765,36.68552039648438L23.799236016082766,36.68434139648438L23.797936016082765,36.681168396484374L23.795536016082764,36.67501439648437Q23.462436016082762,35.841538396484374,22.46648601608276,35.845320396484375L22.465886016082763,35.84532239648438ZM18.736076016082762,36.85200039648438L22.46827601608276,36.84531939648438L22.469546016082763,36.84531639648438Q22.786156016082764,36.843944396484375,22.866956016082764,37.046126396484375L22.867346016082763,37.047134396484374L22.867396016082765,37.047249396484375L22.867736016082766,37.04812839648437Q23.153236016082765,37.78507639648438,23.321936016082766,38.559806396484376L23.322936016082764,38.564526396484375L23.323636016082766,38.567656396484374L23.32393601608276,38.56897639648437Q23.550536016082763,39.580416396484374,23.973636016082764,41.616056396484375Q24.070236016082763,42.08080639648438,24.135836016082763,42.395156396484374L14.164596016082763,42.393186396484374Q13.927465016082763,42.393146396484376,13.778178016082764,42.21039639648438Q13.629516016082764,42.028416396484374,13.677413016082763,41.798116396484374L13.775206016082764,41.329146396484376L13.775592016082763,41.32731639648438L14.549886016082764,37.734766396484375L14.549546016082763,37.73641639648437Q14.624256016082764,37.410846396484374,14.782456016082763,37.11785239648437L14.783896016082764,37.11517939648437Q14.928816016082763,36.84566039648438,15.234136016082763,36.84532139648437L15.235956016082763,36.84532539648438L18.736076016082762,36.85200039648438Z" fill-rule="evenodd" fill="#FFFFFF" fill-opacity="1"/></g><g transform="matrix(0.9979641437530518,-0.0637778788805008,0.0637778788805008,0.9979641437530518,-0.44720397975329185,0.49673009519509304)"><g transform="matrix(0.5634496808052063,0.8261503577232361,-0.8321839570999146,0.5544996857643127,22.71178178842729,-18.183879071648658)"><path d="M28.6288623213768,14.586689662361145L28.6288623213768,13.342199662361145Q28.6288623213768,12.899548662361145,28.9405023213768,12.586543662361144Q29.2521433213768,12.273539662361145,29.6928723213768,12.273539662361145L31.7421523213768,12.273539662361145Q32.1828823213768,12.273539662361145,32.4945223213768,12.586544662361145Q32.8061623213768,12.899548662361145,32.8061623213768,13.342199662361145L32.8061623213768,14.586689662361145L28.6288623213768,14.586689662361145ZM31.9876923213768,13.764639662361144L29.4473293213768,13.764639662361144L29.4473293213768,13.342199662361145Q29.4473293213768,13.240052662361144,29.5192463213768,13.167820662361144Q29.5911633213768,13.095588662361145,29.6928723213768,13.095588662361145L31.7421523213768,13.095588662361145Q31.8438623213768,13.095588662361145,31.9157823213768,13.167820662361144Q31.9876923213768,13.240052662361144,31.9876923213768,13.342199662361145L31.9876923213768,13.764639662361144Z" fill-rule="evenodd" fill="#FFFFFF" fill-opacity="1"/></g><g transform="matrix(0.5634496808052063,0.8261504173278809,-0.8321839570999146,0.554499626159668,22.584550220065356,-18.286919670744993)"><path d="M33.085957491054536,14.662573156318665L28.661817491054535,14.662573156318665L28.661817491054535,13.295053156318664Q28.661817491054535,12.801713156318664,29.009278491054534,12.452731156318665Q29.357124491054535,12.103363137985665,29.849247491054534,12.103363202151165L31.898527491054534,12.103363202151165Q32.39065749105453,12.103363202151165,32.73849749105453,12.452731156318665Q33.085957491054536,12.801713156318664,33.085957491054536,13.295053156318664L33.085957491054536,14.662573156318665ZM32.83911749105454,13.295053156318664L32.83911749105454,14.416503156318665L28.908659491054536,14.416503156318665L28.908659491054536,13.295053156318664Q28.908659491054536,12.903093156318665,29.184478491054534,12.626066156318664Q29.459914491054533,12.349424156318664,29.849247491054534,12.349425156318665L31.898527491054534,12.349425156318665Q32.28785749105454,12.349425156318665,32.563297491054534,12.626066156318664Q32.83911749105454,12.903093156318665,32.83911749105454,13.295053156318664ZM32.267497491054534,13.295053156318664L32.267497491054534,13.840523156318664L29.480284491054533,13.840523156318664L29.480284491054533,13.295053156318664Q29.480284491054533,13.142213156318665,29.588022491054534,13.034007156318665Q29.696147491054536,12.925412156318664,29.849247491054534,12.925412156318664L31.898527491054534,12.925412156318664Q32.051637491054535,12.925412156318664,32.159757491054535,13.034007156318665Q32.26748749105454,13.142213156318665,32.267497491054534,13.295053156318664ZM32.02064749105453,13.295063156318665Q32.02064749105453,13.243593156318665,31.984557491054534,13.207343156318665Q31.948837491054533,13.171473156318665,31.898527491054534,13.171473156318665L29.849247491054534,13.171473156318665Q29.798937491054534,13.171473156318665,29.763217491054533,13.207343156318665Q29.727127491054535,13.243593156318665,29.727127491054535,13.295053156318664L29.727127491054535,13.594463156318664L32.02064749105453,13.594463156318664L32.02064749105453,13.295063156318665Z" fill-rule="evenodd" fill="#FFFFFF" fill-opacity="1"/></g><g transform="matrix(0.5634496808052063,0.8261503577232361,-0.8321840167045593,0.5544995665550232,23.36757047485214,-11.95509164834979)"><path d="M23.08307546377182,32.3237024263382L23.08307546377182,17.039462426338197Q23.08307546377182,16.596811426338196,23.39471546377182,16.283806426338195Q23.70635646377182,15.970802426338196,24.14708546377182,15.970802426338196L26.19636546377182,15.970802465536595Q26.63709546377182,15.970802465536595,26.94873546377182,16.283807426338196Q27.26037546377182,16.596811426338196,27.26037546377182,17.039462426338197L27.26037546377182,32.3237024263382Q27.26037546377182,33.1926024263382,26.648625463771822,33.8071024263382Q26.03687546377182,34.42150242633819,25.17172546377182,34.42150242633819Q24.30657546377182,34.42150242633819,23.694826463771822,33.8071024263382Q23.08307546377182,33.1926024263382,23.08307546377182,32.3237024263382ZM23.90154246377182,32.3237024263382Q23.90154246377182,32.85210242633819,24.27357546377182,33.22580242633819Q24.64559546377182,33.59950242633819,25.17172546377182,33.59950242633819Q25.69785546377182,33.59950242633819,26.06988546377182,33.22580242633819Q26.44190546377182,32.85210242633819,26.44190546377182,32.3237024263382L26.44190546377182,17.039462426338197Q26.44190546377182,16.937315426338195,26.36999546377182,16.865083426338195Q26.29807546377182,16.792851426338196,26.19636546377182,16.792851426338196L24.14708546377182,16.792851426338196Q24.04537646377182,16.792851426338196,23.97345946377182,16.865083426338195Q23.90154246377182,16.937315426338195,23.90154246377182,17.039462426338197L23.90154246377182,32.3237024263382Z" fill-rule="evenodd" fill="#FFFFFF" fill-opacity="1"/></g><g transform="matrix(0.5634496808052063,0.8261503577232361,-0.8321840763092041,0.5544995665550232,23.240339460831837,-12.058132493512655)"><path d="M23.763604587123872,33.8466249666214Q23.11603168827487,33.1962249666214,23.11603158712387,32.276524966621395L23.11603158712387,16.9923149666214Q23.11603159631943,16.4989749666214,23.46349358712387,16.1499919666214Q23.81133858712387,15.800625003287399,24.30346158712387,15.800624966621399L26.35274158712387,15.800625003287399Q26.84487158712387,15.800625003287399,27.19271158712387,16.149992966621397Q27.540171587123872,16.4989749666214,27.540171587123872,16.9923249666214L27.540171587123872,32.276524966621395Q27.540171587123872,33.1962249666214,26.89260158712387,33.8466249666214Q26.244641587123873,34.497424966621395,25.32810158712387,34.497424966621395Q24.41156158712387,34.497424966621395,23.763604587123872,33.8466249666214ZM23.93880358712387,33.6732249666214Q24.51435158712387,34.2513249666214,25.32810158712387,34.2513249666214Q26.14185158712387,34.2513249666214,26.71740158712387,33.6732249666214Q27.29333158712387,33.0948249666214,27.29333158712387,32.276524966621395L27.29333158712387,16.9923249666214Q27.29333158712387,16.6003549666214,27.01751158712387,16.3233279666214Q26.74208158712387,16.046686966621397,26.35274158712387,16.046686966621397L24.30346158712387,16.0466859666214Q23.91412858712387,16.0466859666214,23.63869258712387,16.3233279666214Q23.36287358712387,16.6003549666214,23.36287358712387,16.9923149666214L23.36287358712387,32.276524966621395Q23.36287258712387,33.0948249666214,23.93880358712387,33.6732249666214ZM23.93449858712387,16.9923149666214Q23.93449858712387,16.8394749666214,24.04223658712387,16.7312689666214Q24.15036158712387,16.6226739666214,24.30346158712387,16.6226739666214L26.35274158712387,16.6226739666214Q26.50585158712387,16.6226739666214,26.61397158712387,16.7312689666214Q26.72171158712387,16.8394749666214,26.72171158712387,16.9923249666214L26.72171158712387,32.276524966621395Q26.72171158712387,32.855724966621395,26.31386158712387,33.2653249666214Q25.90562158712387,33.6753249666214,25.32810158712387,33.6753249666214Q24.75058158712387,33.6753249666214,24.342351587123872,33.2653249666214Q23.93449858712387,32.855724966621395,23.93449858712387,32.276524966621395L23.93449858712387,16.9923149666214ZM24.18134158712387,16.9923149666214L24.18134158712387,32.276524966621395Q24.18134158712387,32.7543249666214,24.517551587123872,33.092024966621395Q24.85337158712387,33.429324966621394,25.32810158712387,33.429324966621394Q25.80283158712387,33.429324966621394,26.13866158712387,33.092024966621395Q26.474861587123872,32.7543249666214,26.474861587123872,32.276524966621395L26.474861587123872,16.9923249666214Q26.474861587123872,16.940854966621398,26.43877158712387,16.9046049666214Q26.403061587123872,16.8687349666214,26.35274158712387,16.8687349666214L24.30346158712387,16.8687349666214Q24.25315158712387,16.8687349666214,24.21743158712387,16.9046049666214Q24.18134158712387,16.940854966621398,24.18134158712387,16.9923149666214Z" fill-rule="evenodd" fill="#FFFFFF" fill-opacity="1"/></g><g><path d="M25.914926660060882,19.494942330801486Q27.325226660060885,21.91584233080149,28.026426660060885,23.340042330801488Q29.139626660060884,25.600842330801488,29.654126660060882,27.545342330801486Q29.712826660060884,27.767342330801487,29.899426660060882,27.896742330801487Q30.066826660060883,28.012842330801487,30.273126660060882,28.009242330801488Q30.487226660060884,28.005542330801486,30.65002666006088,27.875242330801488Q30.833926660060882,27.728142330801486,30.867626660060882,27.489842330801487Q31.334826660060884,24.189442330801487,30.566426660060884,20.935442330801486Q30.11342666006088,19.016942330801488,29.263926660060882,17.255162330801486C29.24592666006088,17.272632330801486,29.22642666006088,17.288442330801487,29.205426660060883,17.30237233080149L28.574726660060882,17.722642330801484Q29.34542666006088,19.352242330801488,29.76302666006088,21.120842330801487Q30.378126660060882,23.725842330801488,30.16372666006088,26.361742330801487Q29.644526660060883,24.762842330801487,28.768226660060883,22.983142330801485Q28.047326660060882,21.518942330801487,26.600726660060882,19.037942330801485L25.914926660060882,19.494942330801486ZM25.933326660060885,13.681022330801486Q24.515166660060885,12.046382330801487,22.72273666006088,10.798082330801487Q20.51038666006088,9.257342330801487,17.957886660060883,8.465052330801488Q19.262616660060882,9.540542330801486,20.60301666006088,11.010982330801486Q21.76188666006088,12.282282330801486,23.67319666006088,14.709022330801487Q23.76920666006088,14.830932330801488,23.95811666006088,14.997142330801488L23.25680666006088,15.464442330801488Q23.114396660060883,15.327032330801487,23.022186660060882,15.209962330801487Q21.12909666006088,12.806352330801488,19.990086660060882,11.556842330801487Q18.28731666006088,9.688882330801487,16.656673660060882,8.488062330801487Q16.47049546006088,8.350965330801486,16.419161260060882,8.131487330801487Q16.373097860060884,7.934545330801487,16.453821460060883,7.746910330801487Q16.53761366006088,7.552143330801487,16.720871660060883,7.451787630801487Q16.927802660060884,7.338468130801487,17.163941660060882,7.396948830801487Q20.434446660060882,8.206895330801487,23.197926660060883,10.131462330801487Q25.129526660060883,11.476682330801488,26.645426660060885,13.249742330801487C26.588026660060883,13.259532330801488,26.533326660060883,13.281242330801486,26.484926660060882,13.313462330801487L25.933326660060885,13.681022330801486Z" fill-rule="evenodd" fill="#FFFFFF" fill-opacity="1"/></g><g><path d="M26.552593408107757,13.416782448921204L25.91158340810776,13.843922448921203L25.84100340810776,13.762572448921205Q24.432883408107756,12.139512448921202,22.653023408107757,10.899982448921204Q20.71754340810776,9.552062448921204,18.51998340810776,8.781062448921205Q19.595093408107758,9.722462448921203,20.693383408107756,10.927302448921203Q21.855323408107758,12.201962448921204,23.769313408107756,14.632122448921203Q23.858353408107757,14.745172448921203,24.038813408107757,14.903952448921203L24.160303408107758,15.010832448921203L23.242763408107756,15.622202448921204L23.17199340810776,15.553932448921204Q23.02353340810776,15.410682448921204,22.926113408107756,15.287002448921204Q21.035833408107756,12.886932448921204,19.89977340810776,11.640662448921205Q18.205193408107757,9.781682448921204,16.584330408107757,8.588082448921204Q16.361502108107757,8.423982448921203,16.299749608107756,8.159964448921203Q16.244334608107756,7.923041448921204,16.341271008107757,7.697721448921204Q16.441901408107757,7.463815448921204,16.662337408107756,7.343100248921203Q16.910987408107758,7.206933948921203,17.193231408107756,7.276832548921203Q20.485623408107756,8.092198448921204,23.267683408107757,10.029692448921203Q25.21217340810776,11.383892448921204,26.738393408107758,13.168992448921204L26.880593408107757,13.335262448921203L26.665893408107756,13.371832448921204Q26.604293408107758,13.382322448921204,26.552593408107757,13.416782448921204ZM26.41729340810776,13.210272448921204Q26.427393408107758,13.203602448921202,26.43759340810776,13.197422448921204Q24.973953408107757,11.518772448921204,23.128223408107758,10.233362448921204Q20.383283408107758,8.321712448921204,17.134700408107758,7.517198448921204Q16.944666408107757,7.470135448921203,16.779455408107758,7.5606084489212035Q16.63337440810776,7.640605448921203,16.566421408107757,7.796233448921203Q16.501910408107758,7.946183448921204,16.53862240810776,8.103143448921204Q16.579537408107758,8.278072448921204,16.729065408107758,8.388192448921204Q18.369483408107758,9.596202448921204,20.080453408107758,11.473162448921205Q21.22251340810776,12.726022448921203,23.118303408107757,15.133062448921205Q23.18196340810776,15.213892448921204,23.27206340810776,15.306032448921204L23.758753408107758,14.981742448921203Q23.646513408107758,14.874162448921204,23.57712340810776,14.786062448921204Q21.66864340810776,12.362902448921204,20.512693408107758,11.094802448921204Q19.17820340810776,9.630842448921204,17.88025340810776,8.560932448921204L17.394933408107757,8.160889448921203L17.994013408107758,8.346842448921203Q20.564583408107758,9.144732448921204,22.79249340810776,10.696322448921205Q24.552863408107758,11.922282448921203,25.954863408107755,13.518432448921203L26.41729340810776,13.210272448921204ZM26.53309340810776,18.934822448921203L26.640993408107757,18.862922448921204L26.706493408107757,18.975322448921204Q28.155393408107756,21.460122448921204,28.878193408107755,22.928222448921204Q29.59939340810776,24.393022448921204,30.080193408107757,25.736822448921203Q30.18249340810776,23.431322448921204,29.643693408107758,21.149622448921203Q29.229093408107758,19.393722448921203,28.463993408107758,17.775922448921204L28.418093408107758,17.678822448921203L29.137893408107757,17.199182448921203Q29.159893408107756,17.184492448921205,29.178893408107758,17.166082448921202L29.300493408107755,17.047982448921204L29.374293408107757,17.201112448921204Q30.229693408107757,18.9750224489212,30.68589340810776,20.906922448921204Q31.459693408107757,24.183722448921202,30.98919340810776,27.507422448921204Q30.94849340810776,27.794522448921203,30.726293408107757,27.972322448921204Q30.530893408107758,28.128622448921202,30.275193408107757,28.133022448921203Q30.029693408107757,28.137322448921203,29.829893408107758,27.998822448921203Q29.605993408107757,27.843522448921203,29.535593408107758,27.577322448921205Q29.024193408107756,25.644822448921204,27.916593408107758,23.395122448921203Q27.217193408107757,21.974722448921206,25.809143408107758,19.557722448921204L25.750173408107756,19.456422448921202L26.53309340810776,18.934822448921203ZM26.07968340810776,19.533522448921204L26.56049340810776,19.213222448921204Q27.95579340810776,21.611322448921204,28.658393408107756,23.038322448921203Q29.53069340810776,24.809922448921203,30.04719340810776,26.400322448921205L30.23639340810776,26.983022448921204L30.28609340810776,26.371922448921204Q30.502093408107758,23.716422448921204,29.88239340810776,21.092222448921206Q29.47419340810776,19.363622448921205,28.731193408107757,17.766822448921204L29.217293408107757,17.442922448921202Q30.014293408107758,19.131422448921203,30.447093408107758,20.964222448921205Q31.21009340810776,24.195322448921203,30.746193408107757,27.472422448921204Q30.719393408107756,27.661922448921203,30.573793408107758,27.778322448921205Q30.443493408107756,27.882522448921204,30.270993408107756,27.885622448921204Q30.10399340810776,27.888422448921204,29.968993408107757,27.794822448921202Q29.819793408107756,27.691322448921202,29.772693408107756,27.513522448921204Q29.254993408107758,25.557022448921202,28.136393408107757,23.285022448921204Q27.44789340810776,21.886722448921205,26.07968340810776,19.533522448921204Z" fill-rule="evenodd" fill="#FFFFFF" fill-opacity="1"/></g><g transform="matrix(0.5634497404098511,0.8261503577232361,-0.8321839570999146,0.554499626159668,22.17648732819044,-16.67737540463614)"><path d="M26.93705552816391,13.33984468195343L26.93705552816391,17.695295681953432Q26.93705552816391,18.03579568195343,27.17677852816391,18.27656568195343Q27.41650252816391,18.51734568195343,27.755522528163908,18.51734568195343L31.765365528163912,18.51734568195343Q32.10438552816391,18.51734568195343,32.34410552816391,18.27656568195343Q32.58383552816391,18.03579568195343,32.58383552816391,17.695295681953432L32.58383552816391,13.33984468195343Q32.58383552816391,12.99934068195343,32.34410552816391,12.758568681953431Q32.10438552816391,12.51779568195343,31.765365528163912,12.51779568195343L27.755522528163908,12.51779568195343Q27.41650252816391,12.51779568195343,27.17677852816391,12.758568681953431Q26.93705552816391,12.99934068195343,26.93705552816391,13.33984468195343ZM31.765365528163912,17.695295681953432L27.755522528163908,17.695295681953432L27.755522528163908,13.33984468195343L31.765365528163912,13.33984468195343L31.765365528163912,17.695295681953432Z" fill-rule="evenodd" fill="#FFFFFF" fill-opacity="1"/></g><g transform="matrix(0.5634497404098511,0.8261503577232361,-0.8321839570999146,0.5544995665550232,22.049255757864223,-16.780414290939543)"><path d="M27.245554697841644,12.62475517591095Q27.521482697841645,12.34761917591095,27.911898697841643,12.34761917591095L31.921740697841646,12.34761917591095Q32.31216069784165,12.34761920341045,32.58808069784165,12.62475517591095Q32.86363069784164,12.90150617591095,32.86363069784164,13.29269917591095L32.86363069784164,17.64814917591095Q32.86363069784164,18.03933917591095,32.58809069784164,18.31608917591095Q32.31216069784165,18.59322917591095,31.921740697841646,18.59322917591095L27.911898697841643,18.59322917591095Q27.521483697841646,18.59322917591095,27.245554697841644,18.31608917591095Q26.970010725428345,18.03933917591095,26.970010697841644,17.64814917591095L26.970010697841644,13.29269917591095Q26.970010697841644,12.90150517591095,27.245554697841644,12.62475517591095ZM27.420754697841645,12.79809017591095Q27.216852697841645,13.002885175910949,27.216852697841645,13.29269917591095L27.216852697841645,17.64814917591095Q27.216852697841645,17.93795917591095,27.420754697841645,18.14275917591095Q27.624273697841645,18.34716917591095,27.911898697841643,18.34716917591095L31.921740697841646,18.34716917591095Q32.20937069784164,18.34716917591095,32.41289069784165,18.14275917591095Q32.616790697841644,17.93795917591095,32.616790697841644,17.64814917591095L32.616790697841644,13.29269917591095Q32.616790697841644,13.002885175910949,32.41289069784165,12.79809017591095Q32.20937069784164,12.59368117591095,31.921740697841646,12.59368117591095L27.911898697841643,12.59368117591095Q27.624273697841645,12.593680175910949,27.420754697841645,12.79809017591095ZM32.045160697841645,13.16966817591095L32.045160697841645,17.77117917591095L27.788477697841643,17.77117917591095L27.788477697841643,13.16966817591095L32.045160697841645,13.16966817591095ZM31.798320697841646,17.52511917591095L31.798320697841646,13.41572917591095L28.035320697841644,13.41572917591095L28.035320697841644,17.52511917591095L31.798320697841646,17.52511917591095Z" fill-rule="evenodd" fill="#FFFFFF" fill-opacity="1"/></g></g><g><path d="M15.1281687109375,32.4791375390625C15.1228787109375,32.8608075390625,14.9240887109375,33.0843375390625,14.6547647109375,33.1170375390625C14.3945917109375,33.1464275390625,14.154776710937501,32.9708475390625,14.0998157109375,32.7107375390625C13.9728687109375,32.1221075390625,13.8644357109375,31.5294475390625,13.7471864109375,30.9381375390625C13.7189761109375,30.7925435390625,13.6832726109375,30.6469545390625,13.6674042309375,30.4995745390625C13.6396412109375,30.2423115390625,13.8089787109375,30.0058005390625,14.0583817109375,29.9535041390625C14.3343137109375,29.8854124390625,14.6124497109375,29.9902376390625,14.6706387109375,30.2464725390625C14.8456287109375,31.0210075390625,14.9910887109375,31.8031575390625,15.1281687109375,32.4791375390625Z" fill="#FFFFFF" fill-opacity="1"/></g><g><path d="M12.83085771484375,34.903068359375C12.83085771484375,35.257403359375,12.56637771484375,35.490353359375,12.22388771484375,35.425393359375C11.52480771484375,35.291003359375,10.82571771484375,35.160653359375,10.12927471484375,35.015503359375C9.77664571484375,34.941589359375,9.62016651484375,34.637870359375,9.73785631484375,34.305480359375C9.82292771484375,34.065819359375,10.01643371484375,33.923812159375,10.26679971484375,33.969057179375Q11.36038771484375,34.166609359375,12.44780771484375,34.396415359375C12.69861771484375,34.448832359375,12.82996771484375,34.649520359375,12.83085771484375,34.903068359375Z" fill="#FFFFFF" fill-opacity="1"/></g><g><path d="M13.2799168359375,32.99549533203125C13.2358368359375,33.22261533203125,13.1476768359375,33.37716533203125,12.9784168359375,33.48108533203125C12.8091568359375,33.58501533203125,12.6218168359375,33.580535332031246,12.4640168359375,33.45600533203125C12.2368168359375,33.28096533203125,12.0193168359375,33.09328533203125,11.8125368359375,32.89380533203125C11.5088338359375,32.59321533203125,11.2196778359375,32.27650533203125,10.9287588359375,31.96248633203125C10.6867673359375,31.70087233203125,10.6845639359375,31.39849533203125,10.9137728359375,31.17361833203125C11.1429818359375,30.94874143203125,11.4321368359375,30.96083463203125,11.6886748359375,31.21841533203125C12.1466468359375,31.67892533203125,12.6050668359375,32.13898533203125,13.0524668359375,32.61024533203125C13.1520868359375,32.71551533203125,13.2049768359375,32.86603533203125,13.2799168359375,32.99549533203125Z" fill="#FFFFFF" fill-opacity="1"/></g></g></g></svg>