<svg xmlns="http://www.w3.org/2000/svg" xmlns:xlink="http://www.w3.org/1999/xlink" fill="none" version="1.1" width="24" height="24" viewBox="0 0 24 24"><defs><clipPath id="svg0_1_0409"><rect x="0" y="0" width="24" height="24" rx="0"/></clipPath></defs><g style="opacity:0.5;" clip-path="url(#svg0_1_0409)"><g><path d="M10.076982421875,3.61632Q7.942432421875,5.735609999999999,7.942432421875,8.73425Q7.942432421875,9.911850000000001,8.308142421875,11.00617L2.488447221875,16.7842Q1.500732421875,17.7649,1.500732421875,19.1533Q1.500732421875,20.5416,2.488464021875,21.5223Q3.473207421875,22.5,4.864362421875001,22.5Q6.255502421875001,22.5,7.240302421875,21.5223L13.136932421875,15.6678Q14.146832421875,15.9685,15.221632421875,15.9685Q18.234632421875,15.9685,20.366232421875,13.8522Q22.500732421875,11.73289,22.500732421875,8.73425Q22.500732421875,7.46207,22.069032421875,6.2750900000000005Q21.993932421875,6.06837,21.838932421875,5.9122699999999995Q21.769532421875,5.84238,21.687832421875,5.78737Q21.606132421875,5.73236,21.515232421875,5.69434Q21.424432421875,5.6563300000000005,21.327832421875,5.63677Q21.231332421875,5.61721,21.132832421875,5.61686Q21.034332421875,5.61651,20.937732421875,5.63538Q20.841032421875,5.65424,20.749932421875,5.69161Q20.658732421875,5.72898,20.576732421875,5.7834Q20.494632421875,5.83783,20.424732421875,5.907220000000001L18.998332421875,7.32341Q18.031132421875,8.28373,17.063932421875002,7.32341Q16.666832421875,6.92921,16.666832421875,6.373200000000001Q16.666832421875,5.81719,17.063932421875002,5.42298L18.665632421875,3.8326700000000002Q18.787332421875,3.71183,18.861832421875,3.55735Q18.904632421875,3.468629,18.929232421875,3.373271Q18.953932421875,3.277914,18.959432421875,3.17958Q18.965032421875,3.081246,18.951332421875,2.983715Q18.937632421875,2.886184,18.905132421875,2.7932040000000002Q18.872632421875,2.700225,18.822632421875,2.615369Q18.772632421875,2.5305133,18.707032421875,2.4570428Q18.641432421875,2.383572,18.562732421875,2.32431Q18.484132421875,2.265048,18.395432421875,2.2222720000000002Q16.897432421875,1.5,15.221632421875,1.5Q12.208542421875,1.5,10.076982421875,3.61632ZM10.390232421875,10.84778Q9.942432421875,9.84329,9.942432421875,8.73425Q9.942432421875,6.56824,11.486112421875,5.0356000000000005Q13.032732421875,3.5,15.221632421875,3.5Q15.665632421875,3.5,16.092032421875,3.56952L15.654732421875,4.0037Q14.666832421875,4.98456,14.666832421875,6.373200000000001Q14.666832421875,7.76184,15.654732421875,8.74269Q16.639732421875,9.72058,18.031132421875,9.72058Q19.422532421875,9.72057,20.407532421875,8.74269L20.500132421875,8.65076Q20.500732421875,8.69242,20.500732421875,8.73425Q20.500732421875,10.90026,18.957032421875,12.4329Q17.410432421875,13.9685,15.221632421875,13.9685Q14.191632421875,13.9685,13.246632421875,13.5903Q13.179032421875,13.5632,13.108232421875,13.5462Q13.037432421875,13.5293,12.965032421875,13.5227Q12.892532421875,13.5162,12.819832421875,13.5202Q12.747132421875,13.5242,12.675832421875,13.5387Q12.604532421875,13.5532,12.536032421875,13.5779Q12.467542421875,13.6025,12.403362421875,13.6369Q12.339182421875,13.6712,12.280652421875,13.7145Q12.222122421875,13.7577,12.170462421875,13.809L5.831162421875,20.103Q4.864352421875,21.0629,3.897592421875,20.103Q3.500732421875,19.709,3.500732421875,19.1533Q3.500732421875,18.5975,3.897612421875,18.2035L10.181442421875001,11.96459Q10.235142421875,11.91128,10.280202421875,11.8505Q10.325262421875,11.78971,10.360672421875,11.72284Q10.396072421875001,11.65597,10.421012421875,11.58453Q10.445952421874999,11.51309,10.459852421875,11.43872Q10.473752421875,11.36434,10.476312421875,11.28872Q10.478872421875,11.2131,10.470012421875001,11.13795Q10.461162421874999,11.06281,10.441102421875,10.98985Q10.421042421875,10.91689,10.390232421875,10.84778Z" fill-rule="evenodd" fill="#111111" fill-opacity="1"/></g></g></svg>