<svg xmlns="http://www.w3.org/2000/svg" xmlns:xlink="http://www.w3.org/1999/xlink" fill="none" version="1.1" width="40" height="40" viewBox="0 0 40 40"><g><g style="opacity:0.4000000059604645;"></g><g><g><rect x="8.331473350524902" y="8.3330078125" width="23.333332061767578" height="23.333332061767578" rx="0" fill="#D8D8D8" fill-opacity="0"/></g><g><g><path d="M30.167627831840516,11.9012116875Q29.443227831840517,11.1995096875,28.356027831840514,11.6071866875L28.349827831840514,11.6095746875L10.914678831840515,18.3265296875Q9.609528831840516,18.8370296875,9.530570831840516,19.7375296875Q9.440693831840516,20.762549687499998,10.762079831840515,21.1751096875L15.549207831840516,22.6734796875L21.392427831840514,18.9941996875L17.259897831840515,22.728379687500002L16.857427831840514,28.4337796875L17.662197831840516,28.4337796875Q18.437817831840515,28.4337796875,19.090077831840517,27.7812796875L20.814327831840515,26.1228796875L24.860727831840514,29.1046796875L24.901327831840515,29.1274796875Q25.860227831840515,29.6651796875,26.624727831840517,29.3161796875Q27.387227831840516,28.9680796875,27.638027831840514,27.8612796875L30.603027831840514,13.8784596875Q30.878227831840515,12.5894946875,30.167627831840516,11.9012116875ZM25.387427831840515,14.7061396875Q26.055527831840514,14.2646896875,26.648427831840515,14.4760796875Q27.266327831840517,14.6963596875,27.243627831840517,15.3320396875Q27.228727831840516,15.7465096875,26.863227831840515,16.0723596875L18.713677831840513,23.4363796875L18.514977831840515,26.2531796875L20.686127831840516,24.1650796875L25.673727831840516,27.8404796875Q25.934727831840515,27.9822796875,26.001827831840515,27.9516796875Q26.088527831840516,27.9120796875,26.170627831840513,27.550079687500002L29.136027831840515,13.5652396875Q29.237827831840516,13.0888446875,29.124027831840515,12.9786466875Q29.081527831840514,12.9375356875,28.885627831840516,13.0106166875L11.461087831840516,19.7234696875Q11.388907831840514,19.7516996875,11.326137831840516,19.7798996875L15.336157831840515,21.034999687499997L25.387427831840515,14.7061396875Z" fill-rule="evenodd" fill="#99A0AF" fill-opacity="1"/></g></g></g></g></svg>