<svg xmlns="http://www.w3.org/2000/svg" xmlns:xlink="http://www.w3.org/1999/xlink" fill="none" version="1.1" width="20" height="20" viewBox="0 0 20 20"><defs><clipPath id="svg0_36_0685"><rect x="0" y="0" width="20" height="20" rx="0"/></clipPath></defs><g clip-path="url(#svg0_36_0685)"><g><path d="M10.0003221875,18.3333259765625C12.3014921875,18.3333259765625,14.3847921875,17.4005259765625,15.8928921875,15.8925259765625C17.4008921875,14.3844259765625,18.3336921875,12.3011259765625,18.3336921875,9.9999559765625C18.3336921875,7.6987959765625,17.4008921875,5.6154559765625,15.8928921875,4.1073959765625006C14.3847921875,2.5993679765625,12.3014921875,1.6666259765625,10.0003221875,1.6666259765625C7.6991621875,1.6666259765625,5.6158221875,2.5993679765625,4.1077621875000006,4.1073959765625006C2.5997341875,5.6154559765625,1.6669921875,7.6987959765625,1.6669921875,9.9999559765625C1.6669921875,12.3011259765625,2.5997341875,14.3844259765625,4.1077621875000006,15.8925259765625C5.6158221875,17.4005259765625,7.6991621875,18.3333259765625,10.0003221875,18.3333259765625Z" fill="#4CBF87" fill-opacity="1"/><path d="M0.9169921875,9.9999559765625Q0.9169921875,13.7623259765625,3.5774321875,16.4228259765625Q6.2379321875,19.0833259765625,10.0003221875,19.0833259765625Q13.7626921875,19.0833259765625,16.4231921875,16.4228259765625Q19.0836921875,13.7623259765625,19.0836921875,9.9999559765625Q19.0836921875,6.2375659765625,16.4231921875,3.5770759765625Q13.7626921875,0.9166259765625,10.0003221875,0.9166259765625Q6.2379221875,0.9166259765625,3.5774421875,3.5770659765625Q0.9169921875,6.2375559765625,0.9169921875,9.9999559765625ZM10.0003221875,17.5833259765625Q6.8592421875,17.5833259765625,4.6380921875,15.3621259765625Q2.4169921875,13.1410259765625,2.4169921875,9.9999559765625Q2.4169921875,6.8588759765625,4.6380921875,4.6377359765624995Q6.8592421875,2.4166259765625,10.0003221875,2.4166259765625Q13.1413921875,2.4166259765625,15.3624921875,4.6377259765625Q17.5836921875,6.8588759765625,17.5836921875,9.9999559765625Q17.5836921875,13.1410259765625,15.3624921875,15.3621259765625Q13.1413921875,17.5833259765625,10.0003221875,17.5833259765625Z" fill-rule="evenodd" fill="#4CBF87" fill-opacity="1"/></g><g><path d="M14.6973221875,8.03033Q14.8028121875,7.924841,14.8599021875,7.787013Q14.9169921875,7.649184,14.9169921875,7.5Q14.9169921875,7.4261315,14.9025821875,7.353682Q14.8881721875,7.281233,14.8599021875,7.212987Q14.8316321875,7.144742,14.7905921875,7.083322Q14.7495521875,7.021903,14.6973221875,6.96967Q14.645092187500001,6.917437,14.5836721875,6.876398Q14.522252187500001,6.835359,14.4540021875,6.80709Q14.3857621875,6.778822,14.3133121875,6.764411Q14.2408621875,6.75,14.1669921875,6.75Q14.017812187499999,6.75,13.8799821875,6.80709Q13.7421521875,6.864181,13.6366621875,6.96967L9.1669921875,11.43934L7.1974761874999995,9.46982L7.1973221875,9.46967Q7.0918331875,9.36418,6.9540051875,9.30709Q6.8161761875,9.25,6.6669921875,9.25Q6.5931236875,9.25,6.5206741875,9.26441Q6.4482251875,9.27882,6.3799791875,9.30709Q6.3117341875,9.33536,6.2503141875,9.3764Q6.1888951875,9.41744,6.1366621875,9.46967Q6.0844291875,9.5219,6.0433901875,9.58332Q6.0023511875,9.64474,5.9740821875,9.71299Q5.9458141875,9.78123,5.9314031875,9.85368Q5.9169921875,9.92613,5.9169921875,10Q5.9169921875,10.14918,5.9740821875,10.28701Q6.0311731875,10.42484,6.1366621875,10.53033L6.1369571875,10.53063L8.6366621875,13.03033Q8.7421521875,13.135819999999999,8.8799821875,13.192910000000001Q9.0178121875,13.25,9.1669921875,13.25Q9.3161721875,13.25,9.4540021875,13.192910000000001Q9.5918321875,13.135819999999999,9.6973221875,13.03033L14.6968621875,8.030792L14.6973221875,8.03033L14.6973221875,8.03033Z" fill-rule="evenodd" fill="#FFFFFF" fill-opacity="1"/></g></g></svg>