<svg xmlns="http://www.w3.org/2000/svg" xmlns:xlink="http://www.w3.org/1999/xlink" fill="none" version="1.1" width="20" height="20" viewBox="0 0 20 20"><defs><clipPath id="svg0_36_0616"><rect x="0" y="0" width="20" height="20" rx="0"/></clipPath></defs><g clip-path="url(#svg0_36_0616)"><g><path d="M10.0003221875,18.3333259765625C12.3014921875,18.3333259765625,14.3847921875,17.4005259765625,15.8928921875,15.8925259765625C17.4008921875,14.3844259765625,18.3336921875,12.3011259765625,18.3336921875,9.9999559765625C18.3336921875,7.6987959765625,17.4008921875,5.6154559765625,15.8928921875,4.1073959765625006C14.3847921875,2.5993679765625,12.3014921875,1.6666259765625,10.0003221875,1.6666259765625C7.6991621875,1.6666259765625,5.6158221875,2.5993679765625,4.1077621875000006,4.1073959765625006C2.5997341875,5.6154559765625,1.6669921875,7.6987959765625,1.6669921875,9.9999559765625C1.6669921875,12.3011259765625,2.5997341875,14.3844259765625,4.1077621875000006,15.8925259765625C5.6158221875,17.4005259765625,7.6991621875,18.3333259765625,10.0003221875,18.3333259765625Z" fill="#F79218" fill-opacity="1"/><path d="M0.9169921875,9.9999559765625Q0.9169921875,13.7623259765625,3.5774321875,16.4228259765625Q6.2379321875,19.0833259765625,10.0003221875,19.0833259765625Q13.7626921875,19.0833259765625,16.4231921875,16.4228259765625Q19.0836921875,13.7623259765625,19.0836921875,9.9999559765625Q19.0836921875,6.2375659765625,16.4231921875,3.5770759765625Q13.7626921875,0.9166259765625,10.0003221875,0.9166259765625Q6.2379221875,0.9166259765625,3.5774421875,3.5770659765625Q0.9169921875,6.2375559765625,0.9169921875,9.9999559765625ZM10.0003221875,17.5833259765625Q6.8592421875,17.5833259765625,4.6380921875,15.3621259765625Q2.4169921875,13.1410259765625,2.4169921875,9.9999559765625Q2.4169921875,6.8588759765625,4.6380921875,4.6377359765624995Q6.8592421875,2.4166259765625,10.0003221875,2.4166259765625Q13.1413921875,2.4166259765625,15.3624921875,4.6377259765625Q17.5836921875,6.8588759765625,17.5836921875,9.9999559765625Q17.5836921875,13.1410259765625,15.3624921875,15.3621259765625Q13.1413921875,17.5833259765625,10.0003221875,17.5833259765625Z" fill-rule="evenodd" fill="#F79218" fill-opacity="1"/></g><g><path d="M11.0413378125,5.6250440234375Q11.0413378125,5.6762140234375,11.0363278125,5.7271440234375Q11.0313078125,5.7780740234375,11.021327812500001,5.8282640234375Q11.011337812499999,5.8784540234375005,10.9964878125,5.9274240234375Q10.981627812500001,5.9763940234375,10.9620478125,6.0236740234375Q10.9424678125,6.0709440234375,10.918337812499999,6.1160740234375Q10.894217812499999,6.1612140234375,10.8657878125,6.2037640234375Q10.8373578125,6.2463140234375,10.8048978125,6.2858640234375Q10.7724278125,6.3254240234375,10.7362478125,6.3616140234375Q10.7000578125,6.3977940234375,10.660497812500001,6.4302640234375Q10.6209378125,6.4627240234375005,10.5783978125,6.4911540234375Q10.5358478125,6.5195840234375,10.4907078125,6.5437040234375Q10.4455778125,6.5678340234375,10.398297812500001,6.5874140234375Q10.3510278125,6.6069940234375,10.3020578125,6.6218540234375Q10.2530878125,6.6367040234375,10.2028978125,6.6466940234375Q10.152707812500001,6.6566740234375,10.1017778125,6.6616940234375Q10.0508478125,6.6667040234375,9.9996778125,6.6667040234375Q9.9485008125,6.6667040234375,9.8975728125,6.6616940234375Q9.8466458125,6.6566740234375,9.7964548125,6.6466940234375Q9.7462648125,6.6367040234375,9.697294812500001,6.6218540234375Q9.6483238125,6.6069940234375,9.6010458125,6.5874140234375Q9.5537678125,6.5678340234375,9.5086358125,6.5437040234375Q9.4635048125,6.5195840234375,9.4209558125,6.4911540234375Q9.3784058125,6.4627240234375005,9.3388478125,6.4302640234375Q9.2992898125,6.3977940234375,9.2631048125,6.3616140234375Q9.2269198125,6.3254240234375,9.1944548125,6.2858640234375Q9.1619908125,6.2463140234375,9.1335598125,6.2037640234375Q9.1051298125,6.1612140234375,9.0810068125,6.1160740234375Q9.0568833125,6.0709440234375,9.0372999125,6.0236740234375Q9.0177166125,5.9763940234375,9.0028616125,5.9274240234375Q8.9880066125,5.8784540234375005,8.9780231125,5.8282640234375Q8.9680396125,5.7780740234375,8.9630237225,5.7271440234375Q8.9580078125,5.6762140234375,8.9580078125,5.6250440234375Q8.9580078125,5.5738670234375,8.9630237225,5.5229400234375Q8.9680396125,5.4720120234375,8.9780231125,5.4218220234375Q8.9880066125,5.3716310234375,9.0028616125,5.3226610234375Q9.0177166125,5.2736910234375,9.0372999125,5.2264120234375Q9.0568833125,5.1791340234375,9.0810068125,5.1340020234375Q9.1051298125,5.0888710234375,9.1335598125,5.0463220234375Q9.1619908125,5.0037720234375,9.1944548125,4.9642140234375Q9.2269198125,4.9246560234375,9.2631048125,4.8884710234375Q9.2992898125,4.8522860234375,9.3388478125,4.8198210234375Q9.3784058125,4.7873570234375,9.4209558125,4.7589260234375Q9.4635048125,4.7304960234375,9.5086358125,4.7063730234375Q9.5537678125,4.6822495234375,9.6010458125,4.6626661234375Q9.6483238125,4.6430828234375,9.697294812500001,4.6282278234375Q9.7462648125,4.6133728234375,9.7964548125,4.6033893234375Q9.8466458125,4.5934058234375,9.8975728125,4.5883899334375Q9.9485008125,4.5833740234375,9.9996778125,4.5833740234375Q10.0508478125,4.5833740234375,10.1017778125,4.5883899334375Q10.152707812500001,4.5934058234375,10.2028978125,4.6033893234375Q10.2530878125,4.6133728234375,10.3020578125,4.6282278234375Q10.3510278125,4.6430828234375,10.398297812500001,4.6626661234375Q10.4455778125,4.6822495234375,10.4907078125,4.7063730234375Q10.5358478125,4.7304960234375,10.5783978125,4.7589260234375Q10.6209378125,4.7873570234375,10.660497812500001,4.8198210234375Q10.7000578125,4.8522860234375,10.7362478125,4.8884710234375Q10.7724278125,4.9246560234375,10.8048978125,4.9642140234375Q10.8373578125,5.0037720234375,10.8657878125,5.0463220234375Q10.894217812499999,5.0888710234375,10.918337812499999,5.1340020234375Q10.9424678125,5.1791340234375,10.9620478125,5.2264120234375Q10.981627812500001,5.2736910234375,10.9964878125,5.3226610234375Q11.011337812499999,5.3716310234375,11.021327812500001,5.4218220234375Q11.0313078125,5.4720120234375,11.0363278125,5.5229400234375Q11.0413378125,5.5738670234375,11.0413378125,5.6250440234375Z" fill="#FFFFFF" fill-opacity="1"/></g><g><path d="M9.791667,7.5833740234375L9.375,7.5833740234375Q9.3011315,7.5833740234375,9.228682,7.5977850234375Q9.156233,7.6121960234375,9.087987,7.6404640234375Q9.019742,7.6687330234375,8.958322,7.7097720234375Q8.896903,7.7508110234375,8.84467,7.8030440234375Q8.792437,7.8552770234375,8.751398,7.9166960234375Q8.710359,7.9781160234375,8.68209,8.0463610234375Q8.653822,8.1146070234375,8.639410999999999,8.1870560234375Q8.625,8.2595055234375,8.625,8.3333740234375Q8.625,8.4072425234375,8.639410999999999,8.4796920234375Q8.653822,8.5521410234375,8.68209,8.6203870234375Q8.710359,8.6886320234375,8.751398,8.7500520234375Q8.792437,8.8114710234375,8.84467,8.8637040234375Q8.896903,8.9159370234375,8.958322,8.9569760234375Q9.019742,8.9980150234375,9.087987,9.0262840234375Q9.156233,9.0545520234375,9.228682,9.068963023437501Q9.3011315,9.0833740234375,9.375,9.0833740234375L9.4583337,9.0833740234375L9.4583337,14.1667040234375Q9.4583337,14.2405740234375,9.4727447,14.3130240234375Q9.487156,14.3854740234375,9.515424,14.453714023437499Q9.543692,14.5219640234375,9.584731,14.5833840234375Q9.625771,14.6448040234375,9.678004,14.6970340234375Q9.730237,14.7492740234375,9.791656,14.7903040234375Q9.853076,14.831344023437499,9.921321,14.8596140234375Q9.989567,14.8878840234375,10.062016,14.9022940234375Q10.134465,14.9167040234375,10.208334,14.9167040234375Q10.282202,14.9167040234375,10.354651,14.9022940234375Q10.4271,14.8878840234375,10.49535,14.8596140234375Q10.56359,14.831344023437499,10.62501,14.7903040234375Q10.68643,14.7492740234375,10.73866,14.6970340234375Q10.7909,14.6448040234375,10.83194,14.5833840234375Q10.87297,14.5219640234375,10.90124,14.453714023437499Q10.92951,14.3854740234375,10.94392,14.3130240234375Q10.95833,14.2405740234375,10.95833,14.1667040234375L10.95833,8.3333740234375Q10.95833,8.2595054234375,10.94392,8.1870560234375Q10.92951,8.1146070234375,10.90124,8.0463610234375Q10.87297,7.9781160234375,10.83194,7.9166960234375Q10.7909,7.8552770234375,10.73866,7.8030440234375Q10.68643,7.7508110234375,10.62501,7.7097720234375Q10.56359,7.6687330234375,10.49535,7.6404640234375Q10.4271,7.6121960234375,10.354651,7.5977850234375Q10.282202,7.5833740234375,10.208334,7.5833740234375L9.791667,7.5833740234375Z" fill-rule="evenodd" fill="#FFFFFF" fill-opacity="1"/></g><g><path d="M8.75,13.4166259765625L11.66667,13.4166259765625Q11.74053,13.4166259765625,11.81298,13.431036976562499Q11.88543,13.4454479765625,11.95368,13.4737159765625Q12.02192,13.5019849765625,12.08334,13.5430239765625Q12.14476,13.5840629765625,12.197,13.6362959765625Q12.24923,13.6885289765625,12.29027,13.7499479765625Q12.33131,13.8113679765625,12.35958,13.8796129765625Q12.38784,13.9478589765625,12.40225,14.0203079765625Q12.41667,14.0927574765625,12.41667,14.1666259765625Q12.41667,14.2404944765625,12.40226,14.3129439765625Q12.38784,14.3853929765625,12.35958,14.4536389765625Q12.33131,14.5218839765625,12.29027,14.5833039765625Q12.24923,14.6447229765625,12.197,14.6969559765625Q12.14476,14.7491889765625,12.08334,14.7902279765625Q12.02192,14.8312669765625,11.95368,14.8595359765625Q11.88543,14.8878039765625,11.81298,14.902214976562501Q11.74053,14.9166259765625,11.66667,14.9166259765625L8.75,14.9166259765625Q8.6761315,14.9166259765625,8.603682,14.902214976562501Q8.531233,14.8878039765625,8.462987,14.8595359765625Q8.394742,14.8312669765625,8.333322,14.7902279765625Q8.271903,14.7491889765625,8.21967,14.6969559765625Q8.167437,14.6447229765625,8.126398,14.5833039765625Q8.085359,14.5218839765625,8.05709,14.4536389765625Q8.028822,14.3853929765625,8.014410999999999,14.3129439765625Q8,14.2404944765625,8,14.1666259765625Q8,14.0927574765625,8.014410999999999,14.0203079765625Q8.028822,13.9478589765625,8.05709,13.8796129765625Q8.085359,13.8113679765625,8.126398,13.7499479765625Q8.167437,13.6885289765625,8.21967,13.6362959765625Q8.271903,13.5840629765625,8.333322,13.5430239765625Q8.394742,13.5019849765625,8.462987,13.4737159765625Q8.531233,13.4454479765625,8.603682,13.431036976562499Q8.6761315,13.4166259765625,8.75,13.4166259765625Z" fill-rule="evenodd" fill="#FFFFFF" fill-opacity="1"/></g></g></svg>