<svg xmlns="http://www.w3.org/2000/svg" xmlns:xlink="http://www.w3.org/1999/xlink" fill="none" version="1.1" width="20" height="20" viewBox="0 0 20 20"><defs><clipPath id="svg0_36_0681"><rect x="0" y="0" width="20" height="20" rx="0"/></clipPath></defs><g clip-path="url(#svg0_36_0681)"><g><path d="M10.0003221875,18.3333259765625C12.3014921875,18.3333259765625,14.3847921875,17.4005259765625,15.8928921875,15.8925259765625C17.4008921875,14.3844259765625,18.3336921875,12.3011259765625,18.3336921875,9.9999559765625C18.3336921875,7.6987959765625,17.4008921875,5.6154559765625,15.8928921875,4.1073959765625006C14.3847921875,2.5993679765625,12.3014921875,1.6666259765625,10.0003221875,1.6666259765625C7.6991621875,1.6666259765625,5.6158221875,2.5993679765625,4.1077621875000006,4.1073959765625006C2.5997341875,5.6154559765625,1.6669921875,7.6987959765625,1.6669921875,9.9999559765625C1.6669921875,12.3011259765625,2.5997341875,14.3844259765625,4.1077621875000006,15.8925259765625C5.6158221875,17.4005259765625,7.6991621875,18.3333259765625,10.0003221875,18.3333259765625Z" fill="#FF6262" fill-opacity="1"/><path d="M0.9169921875,9.9999559765625Q0.9169921875,13.7623259765625,3.5774321875,16.4228259765625Q6.2379321875,19.0833259765625,10.0003221875,19.0833259765625Q13.7626921875,19.0833259765625,16.4231921875,16.4228259765625Q19.0836921875,13.7623259765625,19.0836921875,9.9999559765625Q19.0836921875,6.2375659765625,16.4231921875,3.5770759765625Q13.7626921875,0.9166259765625,10.0003221875,0.9166259765625Q6.2379221875,0.9166259765625,3.5774421875,3.5770659765625Q0.9169921875,6.2375559765625,0.9169921875,9.9999559765625ZM10.0003221875,17.5833259765625Q6.8592421875,17.5833259765625,4.6380921875,15.3621259765625Q2.4169921875,13.1410259765625,2.4169921875,9.9999559765625Q2.4169921875,6.8588759765625,4.6380921875,4.6377359765624995Q6.8592421875,2.4166259765625,10.0003221875,2.4166259765625Q13.1413921875,2.4166259765625,15.3624921875,4.6377259765625Q17.5836921875,6.8588759765625,17.5836921875,9.9999559765625Q17.5836921875,13.1410259765625,15.3624921875,15.3621259765625Q13.1413921875,17.5833259765625,10.0003221875,17.5833259765625Z" fill-rule="evenodd" fill="#FF6262" fill-opacity="1"/></g><g><path d="M6.167367,6.167367C6.390524,5.9442108,6.752331,5.9442108,6.975491,6.167367C6.975491,6.167367,10,9.19188,10,9.19188C10,9.19188,13.02451,6.167367,13.02451,6.167367C13.24766,5.9442108,13.609490000000001,5.9442108,13.83263,6.167367C14.05577,6.390524,14.05577,6.752331,13.83263,6.975491C13.83263,6.975491,10.808119999999999,10,10.808119999999999,10C10.808119999999999,10,13.83263,13.02451,13.83263,13.02451C14.05577,13.24766,14.05577,13.609490000000001,13.83263,13.83263C13.609490000000001,14.05577,13.24766,14.05577,13.02451,13.83263C13.02451,13.83263,10,10.808119999999999,10,10.808119999999999C10,10.808119999999999,6.975491,13.83263,6.975491,13.83263C6.752331,14.05577,6.390524,14.05577,6.167367,13.83263C5.9442108,13.609490000000001,5.9442108,13.24766,6.167367,13.02451C6.167367,13.02451,9.19188,10,9.19188,10C9.19188,10,6.167367,6.975491,6.167367,6.975491C5.9442108,6.752331,5.9442108,6.390524,6.167367,6.167367C6.167367,6.167367,6.167367,6.167367,6.167367,6.167367Z" fill-rule="evenodd" fill="#FFFFFF" fill-opacity="1"/><path d="M13.42857,14.24999Q13.768830000000001,14.24999,14.00941,14.00941Q14.24999,13.76882,14.24999,13.42857Q14.24999,13.08832,14.00941,12.84774L11.16167,10L14.00941,7.15226Q14.24999,6.91167,14.24999,6.571428Q14.24999,6.231186,14.00941,5.99059626Q13.768830000000001,5.75,13.42857,5.75Q13.08831,5.75,12.84774,5.99059068L10,8.83833L7.15227,5.99058941Q6.911674,5.75,6.571428,5.75Q6.231181,5.75,5.99059073,5.99059064Q5.75,6.231181,5.75,6.571428Q5.75,6.911674,5.99059086,7.15227L8.83833,10L5.99059626,12.84773Q5.75,13.08831,5.75,13.42857Q5.75,13.768830000000001,5.99059559,14.00941Q6.231186,14.24999,6.571428,14.24999Q6.911669,14.24999,7.15227,14.00941L10,11.16167L12.84774,14.00941Q13.08832,14.24999,13.42857,14.24999ZM13.74999,13.42857Q13.74999,13.561720000000001,13.655850000000001,13.655850000000001Q13.561720000000001,13.74999,13.42857,13.74999Q13.29543,13.74999,13.20129,13.655850000000001L10.17678,10.63134Q10.14161,10.59618,10.09567,10.57715Q10.04973,10.558119999999999,10,10.558119999999999Q9.95027,10.558119999999999,9.90433,10.57715Q9.85839,10.59618,9.82322,10.63134L6.798715,13.655850000000001Q6.571428,13.88312,6.344139,13.655850000000001Q6.25,13.56171,6.25,13.42857Q6.25,13.29543,6.344139,13.2013L9.36866,10.17678Q9.40382,10.14161,9.42285,10.09567Q9.44188,10.04973,9.44188,10Q9.44188,9.95027,9.42285,9.90433Q9.40382,9.85839,9.36866,9.82322L6.344144,6.798715Q6.11686,6.571428,6.344144,6.344144Q6.571428,6.116861,6.798716,6.344145L9.82322,9.36866Q9.85839,9.40382,9.90433,9.42285Q9.95027,9.44188,10,9.44188Q10.04973,9.44188,10.09567,9.42285Q10.14161,9.40382,10.17678,9.36866L13.20129,6.344144Q13.29543,6.25,13.42857,6.25Q13.56171,6.25,13.655850000000001,6.344139Q13.88312,6.571428,13.655850000000001,6.7987210000000005L10.63134,9.82322Q10.59618,9.85839,10.57715,9.90433Q10.558119999999999,9.95027,10.558119999999999,10Q10.558119999999999,10.04973,10.57715,10.09567Q10.59618,10.14161,10.63134,10.17678L13.655850000000001,13.20129Q13.74999,13.29543,13.74999,13.42857Z" fill-rule="evenodd" fill="#FFFFFF" fill-opacity="1"/></g></g></svg>