<svg xmlns="http://www.w3.org/2000/svg" xmlns:xlink="http://www.w3.org/1999/xlink" fill="none" version="1.1" width="32" height="32" viewBox="0 0 32 32"><defs><clipPath id="master_svg0_27_2559"><rect x="0" y="0" width="32" height="32" rx="0"/></clipPath></defs><g style="opacity:0.30000001192092896;" clip-path="url(#master_svg0_27_2559)"><g><path d="M7.057272046875,7.0571499765625C7.577971046875,6.5364509765625,8.422188046875,6.5364509765625,8.942898046875,7.0571499765625C8.942898046875,7.0571499765625,16.000078046875,14.1143459765625,16.000078046875,14.1143459765625C16.000078046875,14.1143459765625,23.057248046875,7.0571499765625,23.057248046875,7.0571499765625C23.577948046875,6.5364509765625,24.422248046875,6.5364509765625,24.942848046875,7.0571499765625C25.463548046875,7.5778489765625,25.463548046875,8.4220659765625,24.942848046875,8.9427759765625C24.942848046875,8.9427759765625,17.885648046874998,15.9999559765625,17.885648046874998,15.9999559765625C17.885648046874998,15.9999559765625,24.942848046875,23.0571259765625,24.942848046875,23.0571259765625C25.463548046875,23.5778259765625,25.463548046875,24.4221259765625,24.942848046875,24.9427259765625C24.422248046875,25.4634259765625,23.577948046875,25.4634259765625,23.057248046875,24.9427259765625C23.057248046875,24.9427259765625,16.000078046875,17.885525976562498,16.000078046875,17.885525976562498C16.000078046875,17.885525976562498,8.942898046875,24.9427259765625,8.942898046875,24.9427259765625C8.422188046875,25.4634259765625,7.577971046875,25.4634259765625,7.057272046875,24.9427259765625C6.536573046875,24.4221259765625,6.536573046875,23.5778259765625,7.057272046875,23.0571259765625C7.057272046875,23.0571259765625,14.114468046875,15.9999559765625,14.114468046875,15.9999559765625C14.114468046875,15.9999559765625,7.057272046875,8.9427759765625,7.057272046875,8.9427759765625C6.536573046875,8.4220659765625,6.536573046875,7.5778489765625,7.057272046875,7.0571499765625C7.057272046875,7.0571499765625,7.057272046875,7.0571499765625,7.057272046875,7.0571499765625Z" fill-rule="evenodd" fill="#111111" fill-opacity="1"/></g></g></svg>