<svg xmlns="http://www.w3.org/2000/svg" xmlns:xlink="http://www.w3.org/1999/xlink" fill="none" version="1.1" width="32" height="32" viewBox="0 0 32 32"><defs><clipPath id="master_svg0_1_0536"><rect x="0" y="0" width="32" height="32" rx="0"/></clipPath></defs><g style="opacity:0.5;" clip-path="url(#master_svg0_1_0536)"><g><path d="M24,12.666748046875L16,20.666748046875L8,12.666748046875L24,12.666748046875Z" fill="#111111" fill-opacity="1"/><path d="M24,11.666748046875L8,11.666748046875Q7.801088,11.666748046875,7.617317,11.742869046875Q7.433545,11.818989046875,7.292893,11.959641046875Q7.223249,12.029285046875,7.16853,12.111178046875Q7.113812,12.193070046875,7.076121,12.284065046875Q7.03843,12.375059046875,7.019215,12.471658046875Q7,12.568256646875,7,12.6667480817906Q7,12.765239446875,7.019215,12.861838046875Q7.03843,12.958437046875,7.076121,13.049431046875Q7.113812,13.140426046875,7.168531,13.222318046875Q7.223249,13.304211046875,7.292893,13.373855046875L15.29289,21.373858046875Q15.36254,21.443498046875,15.44443,21.498218046875Q15.52632,21.552938046875,15.61732,21.590628046875Q15.70831,21.628318046875002,15.80491,21.647528046875Q15.90151,21.666748046875,16,21.666748046875Q16.098489999999998,21.666748046875,16.19509,21.647528046875Q16.29169,21.628318046875002,16.38268,21.590628046875Q16.47368,21.552938046875,16.55557,21.498218046875Q16.63746,21.443498046875,16.70711,21.373858046875L24.7071,13.373855046875Q24.8478,13.233203046875,24.9239,13.049431046875Q25,12.865660046875,25,12.666748046875Q25,12.568256646875,24.9808,12.471658046875Q24.9616,12.375059046875,24.9239,12.284065046875Q24.8862,12.193070046875,24.8315,12.111178046875Q24.7767,12.029285046875,24.7071,11.959641046875Q24.6375,11.889997046875,24.5556,11.835278046875Q24.4737,11.780560046875,24.3827,11.742869046875Q24.2917,11.705178046875,24.1951,11.685963046874999Q24.0985,11.666748046875,24,11.666748046875ZM10.41421,13.666748046875L16,19.252538046875L21.5858,13.666748046875L10.41421,13.666748046875Z" fill-rule="evenodd" fill="#111111" fill-opacity="1"/></g></g></svg>