<svg xmlns="http://www.w3.org/2000/svg" xmlns:xlink="http://www.w3.org/1999/xlink" fill="none" version="1.1" width="24" height="24" viewBox="0 0 24 24"><defs><clipPath id="master_svg0_1_0902"><rect x="0" y="0" width="24" height="24" rx="0"/></clipPath></defs><g clip-path="url(#master_svg0_1_0902)"><g><path d="M18,9.5L12,15.5L6,9.5L18,9.5Z" fill="#FFFFFF" fill-opacity="1"/><path d="M18,8.5L6,8.5Q5.801088,8.5,5.617317,8.57612Q5.433545,8.652241,5.292893,8.792893Q5.223249,8.862537,5.16853,8.94443Q5.113811,9.026322,5.076121,9.117317Q5.03843,9.208311,5.019215,9.30491Q5,9.4015087,5,9.5000000523734Q5,9.5984915,5.019215,9.69509Q5.03843,9.791689,5.076121,9.882683Q5.113812,9.973678,5.168531,10.05557Q5.223249,10.137463,5.292893,10.207107L11.29289,16.20711Q11.43355,16.34776,11.61732,16.42388Q11.80109,16.5,12,16.5Q12.19891,16.5,12.38268,16.42388Q12.56645,16.34776,12.70711,16.20711L18.7071,10.207107Q18.8478,10.066455,18.9239,9.882683Q19,9.698912,19,9.5Q19,9.4015086,18.980800000000002,9.30491Q18.9616,9.208311,18.9239,9.117317Q18.886200000000002,9.026322,18.8315,8.94443Q18.776699999999998,8.862537,18.7071,8.792893Q18.6375,8.723249,18.5556,8.66853Q18.4737,8.613812,18.3827,8.576121Q18.2917,8.53843,18.1951,8.519214999999999Q18.0985,8.5,18,8.5ZM8.41421,10.5L12,14.08579L15.58579,10.5L8.41421,10.5Z" fill-rule="evenodd" fill="#FFFFFF" fill-opacity="1"/></g></g></svg>