<svg xmlns="http://www.w3.org/2000/svg" xmlns:xlink="http://www.w3.org/1999/xlink" fill="none" version="1.1" width="784" height="64" viewBox="0 0 784 64"><g><path d="M32,64L34.99994,64L34.99994,0L32,0L32,64ZM40.99994,64L46.9999,64L46.9999,0L40.99994,0L40.99994,64ZM52.9999,64L58.9999,64L58.9999,0L52.9999,0L52.9999,64ZM64.9999,64L70.9999,64L70.9999,0L64.9999,0L64.9999,64ZM76.9999,64L82.9999,64L82.9999,0L76.9999,0L76.9999,64ZM88.9999,64L94.9999,64L94.9999,0L88.9999,0L88.9999,64ZM100.9999,64L106.9999,64L106.9999,0L100.9999,0L100.9999,64ZM112.9999,64L118.9999,64L118.9999,0L112.9999,0L112.9999,64ZM124.9999,64L130.9999,64L130.9999,0L124.9999,0L124.9999,64ZM137,64L143,64L143,0L137,0L137,64ZM149,64L155,64L155,0L149,0L149,64ZM161,64L167,64L167,0L161,0L161,64ZM173,64L179,64L179,0L173,0L173,64ZM185,64L191,64L191,0L185,0L185,64ZM197,64L203,64L203,0L197,0L197,64ZM209,64L215,64L215,0L209,0L209,64ZM221,64L227,64L227,0L221,0L221,64ZM233,64L239,64L239,0L233,0L233,64ZM245,64L251,64L251,0L245,0L245,64ZM257,64L263,64L263,0L257,0L257,64ZM269,64L275,64L275,0L269,0L269,64ZM281,64L287,64L287,0L281,0L281,64ZM293,64L299,64L299,0L293,0L293,64ZM305,64L311,64L311,0L305,0L305,64ZM317,64L323,64L323,0L317,0L317,64ZM329,64L335,64L335,0L329,0L329,64ZM341,64L347,64L347,0L341,0L341,64ZM353,64L359,64L359,0L353,0L353,64ZM365,64L371,64L371,0L365,0L365,64ZM377,64L383,64L383,0L377,0L377,64ZM389,64L395,64L395,0L389,0L389,64ZM401,64L407,64L407,0L401,0L401,64ZM413,64L419,64L419,0L413,0L413,64ZM425,64L431,64L431,0L425,0L425,64ZM437,64L443,64L443,0L437,0L437,64ZM449,64L455,64L455,0L449,0L449,64ZM461,64L467,64L467,0L461,0L461,64ZM473,64L479,64L479,0L473,0L473,64ZM485,64L491,64L491,0L485,0L485,64ZM497,64L503,64L503,0L497,0L497,64ZM509,64L515,64L515,0L509,0L509,64ZM521,64L527,64L527,0L521,0L521,64ZM533,64L539,64L539,0L533,0L533,64ZM545,64L551,64L551,0L545,0L545,64ZM557,64L563,64L563,0L557,0L557,64ZM569,64L575,64L575,0L569,0L569,64ZM581,64L587,64L587,0L581,0L581,64ZM593,64L599,64L599,0L593,0L593,64ZM605,64L611,64L611,0L605,0L605,64ZM617,64L623,64L623,0L617,0L617,64ZM629,64L635,64L635,0L629,0L629,64ZM641,64L647,64L647,0L641,0L641,64ZM653,64L659,64L659,0L653,0L653,64ZM665,64L671,64L671,0L665,0L665,64ZM677,64L683,64L683,0L677,0L677,64ZM689,64L695,64L695,0L689,0L689,64ZM701,64L707,64L707,0L701,0L701,64ZM713,64L719,64L719,0L713,0L713,64ZM725,64L731,64L731,0L725,0L725,64ZM737,64L743,64L743,0L737,0L737,64ZM749,64L752,64L752,0L749,0L749,64Z" fill-rule="evenodd" fill="#42E193" fill-opacity="1"/></g></svg>